G75*
%MOIN*%
%OFA0B0*%
%FSLAX25Y25*%
%IPPOS*%
%LPD*%
%AMOC8*
5,1,8,0,0,1.08239X$1,22.5*
%
%ADD10C,0.00000*%
%ADD11OC8,0.05200*%
%ADD12C,0.05200*%
%ADD13C,0.05150*%
%ADD14C,0.11220*%
%ADD15C,0.07400*%
%ADD16C,0.05200*%
%ADD17C,0.05937*%
%ADD18C,0.01200*%
%ADD19C,0.03562*%
D10*
X0001600Y0001600D02*
X0001600Y0198450D01*
X0198450Y0198450D01*
X0198450Y0001600D01*
X0001600Y0001600D01*
D11*
X0007350Y0017350D03*
X0035100Y0033100D03*
X0045100Y0033100D03*
X0071850Y0028600D03*
X0071850Y0018600D03*
X0120850Y0006350D03*
X0160850Y0006350D03*
X0149850Y0060850D03*
X0136600Y0138600D03*
X0136600Y0148600D03*
X0125850Y0171600D03*
X0142600Y0176100D03*
X0142600Y0186100D03*
X0156600Y0186600D03*
X0166600Y0186600D03*
X0188600Y0190850D03*
X0188600Y0150850D03*
X0104850Y0182100D03*
X0099850Y0174600D03*
X0094850Y0182100D03*
X0082850Y0168850D03*
X0082850Y0158850D03*
X0046600Y0148600D03*
X0006600Y0148600D03*
X0007350Y0057350D03*
D12*
X0129850Y0060850D03*
X0125850Y0191600D03*
D13*
X0074724Y0189100D03*
X0066850Y0189100D03*
X0058976Y0189100D03*
X0038679Y0183649D03*
X0033954Y0180500D03*
X0038679Y0177350D03*
X0033954Y0174200D03*
X0038679Y0171051D03*
D14*
X0018600Y0162980D03*
X0018600Y0191720D03*
D15*
X0058850Y0172600D03*
X0058850Y0152600D03*
X0006600Y0136600D03*
X0006600Y0126600D03*
X0006600Y0116600D03*
X0006600Y0106600D03*
X0006600Y0096600D03*
X0006600Y0086600D03*
X0006600Y0076600D03*
X0006600Y0066600D03*
X0007350Y0007100D03*
X0017350Y0007100D03*
X0027350Y0007100D03*
X0037350Y0007100D03*
X0047350Y0007100D03*
X0073600Y0048100D03*
X0073600Y0058100D03*
X0073600Y0068100D03*
X0170850Y0012850D03*
X0190850Y0012850D03*
X0193600Y0066600D03*
X0193600Y0076600D03*
X0193600Y0086600D03*
X0193600Y0096600D03*
X0193600Y0106600D03*
X0193600Y0116600D03*
X0193600Y0126600D03*
X0193600Y0136600D03*
D16*
X0119700Y0138350D02*
X0114500Y0138350D01*
X0114500Y0128350D02*
X0119700Y0128350D01*
X0119700Y0118350D02*
X0114500Y0118350D01*
X0114500Y0108350D02*
X0119700Y0108350D01*
X0119700Y0098350D02*
X0114500Y0098350D01*
X0114500Y0088350D02*
X0119700Y0088350D01*
X0119700Y0078350D02*
X0114500Y0078350D01*
X0114500Y0068350D02*
X0119700Y0068350D01*
X0119700Y0058350D02*
X0114500Y0058350D01*
X0114500Y0048350D02*
X0119700Y0048350D01*
X0119700Y0038350D02*
X0114500Y0038350D01*
X0114500Y0028350D02*
X0119700Y0028350D01*
X0119700Y0018350D02*
X0114500Y0018350D01*
X0089700Y0018350D02*
X0084500Y0018350D01*
X0084500Y0028350D02*
X0089700Y0028350D01*
X0089700Y0038350D02*
X0084500Y0038350D01*
X0084500Y0048350D02*
X0089700Y0048350D01*
X0089700Y0058350D02*
X0084500Y0058350D01*
X0084500Y0068350D02*
X0089700Y0068350D01*
X0089700Y0078350D02*
X0084500Y0078350D01*
X0084500Y0088350D02*
X0089700Y0088350D01*
X0089700Y0098350D02*
X0084500Y0098350D01*
X0084500Y0108350D02*
X0089700Y0108350D01*
X0089700Y0118350D02*
X0084500Y0118350D01*
X0084500Y0128350D02*
X0089700Y0128350D01*
X0089700Y0138350D02*
X0084500Y0138350D01*
X0084500Y0148350D02*
X0089700Y0148350D01*
X0114500Y0148350D02*
X0119700Y0148350D01*
D17*
X0082598Y0189100D03*
X0051102Y0189100D03*
D18*
X0046713Y0190965D02*
X0026010Y0190965D01*
X0026010Y0190246D02*
X0026010Y0193194D01*
X0024882Y0195918D01*
X0024200Y0196600D01*
X0196650Y0196600D01*
X0196650Y0141290D01*
X0194694Y0142100D01*
X0192506Y0142100D01*
X0190484Y0141263D01*
X0188937Y0139715D01*
X0188100Y0137694D01*
X0188100Y0135506D01*
X0188937Y0133484D01*
X0190484Y0131937D01*
X0191299Y0131600D01*
X0190484Y0131263D01*
X0188937Y0129715D01*
X0188100Y0127694D01*
X0188100Y0125506D01*
X0188937Y0123484D01*
X0190484Y0121937D01*
X0191299Y0121600D01*
X0190484Y0121263D01*
X0188937Y0119715D01*
X0188100Y0117694D01*
X0188100Y0115506D01*
X0188937Y0113484D01*
X0190484Y0111937D01*
X0191299Y0111600D01*
X0190484Y0111263D01*
X0188937Y0109715D01*
X0188100Y0107694D01*
X0188100Y0105506D01*
X0188937Y0103484D01*
X0190484Y0101937D01*
X0191299Y0101600D01*
X0190484Y0101263D01*
X0188937Y0099715D01*
X0188100Y0097694D01*
X0188100Y0095506D01*
X0188937Y0093484D01*
X0190484Y0091937D01*
X0191299Y0091600D01*
X0190484Y0091263D01*
X0188937Y0089715D01*
X0188100Y0087694D01*
X0188100Y0085506D01*
X0188937Y0083484D01*
X0190484Y0081937D01*
X0191299Y0081600D01*
X0190484Y0081263D01*
X0188937Y0079715D01*
X0188100Y0077694D01*
X0188100Y0075506D01*
X0188937Y0073484D01*
X0190484Y0071937D01*
X0191542Y0071499D01*
X0190822Y0071133D01*
X0190147Y0070643D01*
X0189557Y0070053D01*
X0189067Y0069378D01*
X0188688Y0068634D01*
X0188430Y0067841D01*
X0188300Y0067017D01*
X0188300Y0067000D01*
X0193200Y0067000D01*
X0193200Y0066200D01*
X0194000Y0066200D01*
X0194000Y0061300D01*
X0194017Y0061300D01*
X0194841Y0061430D01*
X0195634Y0061688D01*
X0196378Y0062067D01*
X0196650Y0062265D01*
X0196650Y0003400D01*
X0164123Y0003400D01*
X0165250Y0004527D01*
X0165250Y0008173D01*
X0162673Y0010750D01*
X0159027Y0010750D01*
X0156450Y0008173D01*
X0156450Y0004527D01*
X0157577Y0003400D01*
X0124123Y0003400D01*
X0125250Y0004527D01*
X0125250Y0008173D01*
X0122673Y0010750D01*
X0119027Y0010750D01*
X0116450Y0008173D01*
X0116450Y0004527D01*
X0117577Y0003400D01*
X0103232Y0003400D01*
X0103629Y0003564D01*
X0104636Y0004571D01*
X0105181Y0005888D01*
X0105181Y0007312D01*
X0104636Y0008629D01*
X0104000Y0009264D01*
X0104000Y0025936D01*
X0104636Y0026571D01*
X0104937Y0027299D01*
X0105065Y0026991D01*
X0110992Y0021064D01*
X0110770Y0020842D01*
X0110100Y0019225D01*
X0110100Y0017475D01*
X0110770Y0015858D01*
X0112008Y0014620D01*
X0113625Y0013950D01*
X0120575Y0013950D01*
X0122192Y0014620D01*
X0123430Y0015858D01*
X0124100Y0017475D01*
X0124100Y0019225D01*
X0123430Y0020842D01*
X0122192Y0022080D01*
X0120575Y0022750D01*
X0116094Y0022750D01*
X0114894Y0023950D01*
X0120575Y0023950D01*
X0122192Y0024620D01*
X0123430Y0025858D01*
X0124100Y0027475D01*
X0124100Y0029225D01*
X0123430Y0030842D01*
X0122192Y0032080D01*
X0120575Y0032750D01*
X0113625Y0032750D01*
X0112008Y0032080D01*
X0110770Y0030842D01*
X0110100Y0029225D01*
X0110100Y0028744D01*
X0109500Y0029344D01*
X0109500Y0166186D01*
X0110136Y0166821D01*
X0110681Y0168138D01*
X0110681Y0169562D01*
X0110136Y0170879D01*
X0109129Y0171886D01*
X0107812Y0172431D01*
X0106388Y0172431D01*
X0105071Y0171886D01*
X0104064Y0170879D01*
X0103519Y0169562D01*
X0103519Y0168138D01*
X0104064Y0166821D01*
X0104700Y0166186D01*
X0104700Y0148474D01*
X0104636Y0148629D01*
X0103629Y0149636D01*
X0102312Y0150181D01*
X0100888Y0150181D01*
X0099571Y0149636D01*
X0098564Y0148629D01*
X0098019Y0147312D01*
X0098019Y0145888D01*
X0098564Y0144571D01*
X0099200Y0143936D01*
X0099200Y0101514D01*
X0098564Y0100879D01*
X0098019Y0099562D01*
X0098019Y0098138D01*
X0098564Y0096821D01*
X0099200Y0096186D01*
X0099200Y0031264D01*
X0098564Y0030629D01*
X0098019Y0029312D01*
X0098019Y0027888D01*
X0098564Y0026571D01*
X0099200Y0025936D01*
X0099200Y0009264D01*
X0098564Y0008629D01*
X0098019Y0007312D01*
X0098019Y0005888D01*
X0098564Y0004571D01*
X0099571Y0003564D01*
X0099968Y0003400D01*
X0051428Y0003400D01*
X0052013Y0003984D01*
X0052850Y0006006D01*
X0052850Y0008194D01*
X0052013Y0010215D01*
X0051394Y0010834D01*
X0068950Y0055552D01*
X0069067Y0055322D01*
X0069557Y0054647D01*
X0070147Y0054057D01*
X0070822Y0053567D01*
X0071542Y0053201D01*
X0070484Y0052763D01*
X0068937Y0051215D01*
X0068100Y0049194D01*
X0068100Y0047006D01*
X0068937Y0044984D01*
X0070484Y0043437D01*
X0072506Y0042600D01*
X0074694Y0042600D01*
X0076715Y0043437D01*
X0078263Y0044984D01*
X0079100Y0047006D01*
X0079100Y0049194D01*
X0078263Y0051215D01*
X0076715Y0052763D01*
X0075658Y0053201D01*
X0076378Y0053567D01*
X0077053Y0054057D01*
X0077643Y0054647D01*
X0078133Y0055322D01*
X0078512Y0056066D01*
X0078769Y0056859D01*
X0078900Y0057683D01*
X0078900Y0057700D01*
X0074000Y0057700D01*
X0074000Y0058500D01*
X0078900Y0058500D01*
X0078900Y0058517D01*
X0078769Y0059341D01*
X0078512Y0060134D01*
X0078133Y0060878D01*
X0077643Y0061553D01*
X0077053Y0062143D01*
X0076378Y0062633D01*
X0075658Y0062999D01*
X0076715Y0063437D01*
X0078263Y0064984D01*
X0079100Y0067006D01*
X0079100Y0069194D01*
X0078263Y0071215D01*
X0076715Y0072763D01*
X0074694Y0073600D01*
X0072506Y0073600D01*
X0072389Y0073552D01*
X0081040Y0095587D01*
X0082008Y0094620D01*
X0083625Y0093950D01*
X0090575Y0093950D01*
X0092192Y0094620D01*
X0093430Y0095858D01*
X0094100Y0097475D01*
X0094100Y0099225D01*
X0093430Y0100842D01*
X0092192Y0102080D01*
X0090575Y0102750D01*
X0087480Y0102750D01*
X0087951Y0103950D01*
X0090575Y0103950D01*
X0092192Y0104620D01*
X0093430Y0105858D01*
X0094100Y0107475D01*
X0094100Y0109225D01*
X0093430Y0110842D01*
X0092192Y0112080D01*
X0090575Y0112750D01*
X0087225Y0112750D01*
X0087761Y0113950D01*
X0090575Y0113950D01*
X0092192Y0114620D01*
X0093430Y0115858D01*
X0094100Y0117475D01*
X0094100Y0119225D01*
X0093430Y0120842D01*
X0092192Y0122080D01*
X0090575Y0122750D01*
X0083625Y0122750D01*
X0082008Y0122080D01*
X0080770Y0120842D01*
X0080100Y0119225D01*
X0080100Y0117475D01*
X0080770Y0115858D01*
X0082008Y0114620D01*
X0082030Y0114611D01*
X0081484Y0114385D01*
X0080809Y0113709D01*
X0078465Y0111366D01*
X0078100Y0110484D01*
X0078100Y0106216D01*
X0078465Y0105334D01*
X0078593Y0105206D01*
X0078066Y0104028D01*
X0076776Y0102738D01*
X0076754Y0102728D01*
X0076439Y0102400D01*
X0076117Y0102079D01*
X0076108Y0102057D01*
X0076092Y0102041D01*
X0075926Y0101617D01*
X0075751Y0101197D01*
X0075751Y0101173D01*
X0068285Y0082156D01*
X0047885Y0036537D01*
X0046923Y0037500D01*
X0043500Y0037500D01*
X0043500Y0145477D01*
X0044777Y0144200D01*
X0048423Y0144200D01*
X0048950Y0144727D01*
X0048950Y0080514D01*
X0048314Y0079879D01*
X0047769Y0078562D01*
X0047769Y0077138D01*
X0048314Y0075821D01*
X0049321Y0074814D01*
X0050638Y0074269D01*
X0052062Y0074269D01*
X0053379Y0074814D01*
X0054386Y0075821D01*
X0054931Y0077138D01*
X0054931Y0078562D01*
X0054386Y0079879D01*
X0053750Y0080514D01*
X0053750Y0150540D01*
X0054187Y0149484D01*
X0055734Y0147937D01*
X0057756Y0147100D01*
X0059944Y0147100D01*
X0061965Y0147937D01*
X0063513Y0149484D01*
X0064350Y0151506D01*
X0064350Y0153694D01*
X0063513Y0155715D01*
X0061965Y0157263D01*
X0059944Y0158100D01*
X0057756Y0158100D01*
X0055734Y0157263D01*
X0054187Y0155715D01*
X0053750Y0154660D01*
X0053750Y0171145D01*
X0053938Y0170566D01*
X0054317Y0169822D01*
X0054807Y0169147D01*
X0055397Y0168557D01*
X0056072Y0168067D01*
X0056816Y0167688D01*
X0057609Y0167430D01*
X0058433Y0167300D01*
X0058450Y0167300D01*
X0058450Y0172200D01*
X0059250Y0172200D01*
X0059250Y0173000D01*
X0058450Y0173000D01*
X0058450Y0177900D01*
X0058433Y0177900D01*
X0057609Y0177769D01*
X0056816Y0177512D01*
X0056072Y0177133D01*
X0055397Y0176643D01*
X0054807Y0176053D01*
X0054531Y0175673D01*
X0054931Y0176638D01*
X0054931Y0178062D01*
X0054386Y0179379D01*
X0053379Y0180386D01*
X0052062Y0180931D01*
X0050638Y0180931D01*
X0049321Y0180386D01*
X0048314Y0179379D01*
X0047769Y0178062D01*
X0047769Y0176638D01*
X0048314Y0175321D01*
X0048950Y0174686D01*
X0048950Y0152473D01*
X0048423Y0153000D01*
X0044777Y0153000D01*
X0043500Y0151723D01*
X0043500Y0163486D01*
X0043135Y0164368D01*
X0042459Y0165043D01*
X0040307Y0167195D01*
X0040867Y0167480D01*
X0041398Y0167866D01*
X0041863Y0168331D01*
X0042249Y0168863D01*
X0042548Y0169448D01*
X0042751Y0170073D01*
X0042854Y0170722D01*
X0042854Y0170863D01*
X0038866Y0170863D01*
X0038866Y0171238D01*
X0042854Y0171238D01*
X0042854Y0171379D01*
X0042751Y0172028D01*
X0042548Y0172653D01*
X0042249Y0173239D01*
X0041863Y0173770D01*
X0041575Y0174059D01*
X0042388Y0174872D01*
X0043054Y0176480D01*
X0043054Y0178220D01*
X0042388Y0179828D01*
X0041716Y0180500D01*
X0042388Y0181171D01*
X0043054Y0182779D01*
X0043054Y0184519D01*
X0042388Y0186127D01*
X0041157Y0187358D01*
X0039549Y0188024D01*
X0037809Y0188024D01*
X0036201Y0187358D01*
X0034970Y0186127D01*
X0034451Y0184874D01*
X0033084Y0184874D01*
X0031476Y0184208D01*
X0030246Y0182978D01*
X0029942Y0182244D01*
X0029886Y0182379D01*
X0028879Y0183386D01*
X0027562Y0183931D01*
X0026138Y0183931D01*
X0024821Y0183386D01*
X0023814Y0182379D01*
X0023269Y0181062D01*
X0023269Y0179638D01*
X0023814Y0178321D01*
X0024821Y0177314D01*
X0026138Y0176769D01*
X0027037Y0176769D01*
X0027580Y0176226D01*
X0027580Y0170823D01*
X0027945Y0169941D01*
X0033700Y0164186D01*
X0033700Y0096014D01*
X0033064Y0095379D01*
X0032519Y0094062D01*
X0032519Y0092638D01*
X0033064Y0091321D01*
X0034071Y0090314D01*
X0035388Y0089769D01*
X0036812Y0089769D01*
X0038129Y0090314D01*
X0038700Y0090886D01*
X0038700Y0035723D01*
X0037500Y0036923D01*
X0037500Y0054686D01*
X0038136Y0055321D01*
X0038681Y0056638D01*
X0038681Y0058062D01*
X0038136Y0059379D01*
X0037129Y0060386D01*
X0035812Y0060931D01*
X0034388Y0060931D01*
X0033071Y0060386D01*
X0032064Y0059379D01*
X0031519Y0058062D01*
X0031519Y0056638D01*
X0032064Y0055321D01*
X0032700Y0054686D01*
X0032700Y0036923D01*
X0030700Y0034923D01*
X0030700Y0031277D01*
X0033277Y0028700D01*
X0036923Y0028700D01*
X0038843Y0030620D01*
X0039065Y0030084D01*
X0039200Y0029949D01*
X0039200Y0019264D01*
X0038564Y0018629D01*
X0038019Y0017312D01*
X0038019Y0015888D01*
X0038405Y0014956D01*
X0038329Y0014884D01*
X0038109Y0014677D01*
X0038109Y0014677D01*
X0038109Y0014677D01*
X0037852Y0014102D01*
X0037719Y0013805D01*
X0037180Y0012600D01*
X0036256Y0012600D01*
X0034234Y0011763D01*
X0032687Y0010215D01*
X0032249Y0009158D01*
X0031883Y0009878D01*
X0031393Y0010553D01*
X0030803Y0011143D01*
X0030128Y0011633D01*
X0029384Y0012012D01*
X0028591Y0012269D01*
X0027767Y0012400D01*
X0027750Y0012400D01*
X0027750Y0007500D01*
X0026950Y0007500D01*
X0026950Y0012400D01*
X0026933Y0012400D01*
X0026109Y0012269D01*
X0025316Y0012012D01*
X0024572Y0011633D01*
X0023897Y0011143D01*
X0023307Y0010553D01*
X0022817Y0009878D01*
X0022451Y0009158D01*
X0022013Y0010215D01*
X0020465Y0011763D01*
X0018469Y0012590D01*
X0015500Y0024641D01*
X0015500Y0025686D01*
X0016136Y0026321D01*
X0016681Y0027638D01*
X0016681Y0029062D01*
X0016136Y0030379D01*
X0015500Y0031014D01*
X0015500Y0044636D01*
X0016071Y0044064D01*
X0017388Y0043519D01*
X0018812Y0043519D01*
X0019200Y0043679D01*
X0019200Y0019264D01*
X0018564Y0018629D01*
X0018019Y0017312D01*
X0018019Y0015888D01*
X0018564Y0014571D01*
X0019571Y0013564D01*
X0020888Y0013019D01*
X0022312Y0013019D01*
X0023629Y0013564D01*
X0024636Y0014571D01*
X0025181Y0015888D01*
X0025181Y0017312D01*
X0024636Y0018629D01*
X0024000Y0019264D01*
X0024000Y0033630D01*
X0024269Y0033519D01*
X0025693Y0033519D01*
X0027010Y0034064D01*
X0028017Y0035071D01*
X0028562Y0036388D01*
X0028562Y0037812D01*
X0028017Y0039129D01*
X0027250Y0039896D01*
X0027250Y0082673D01*
X0028017Y0083440D01*
X0028562Y0084757D01*
X0028562Y0086181D01*
X0028017Y0087497D01*
X0027010Y0088505D01*
X0025693Y0089050D01*
X0024269Y0089050D01*
X0024000Y0088939D01*
X0024000Y0145936D01*
X0024636Y0146571D01*
X0025181Y0147888D01*
X0025181Y0149312D01*
X0024636Y0150629D01*
X0023629Y0151636D01*
X0022312Y0152181D01*
X0020888Y0152181D01*
X0019571Y0151636D01*
X0018564Y0150629D01*
X0018019Y0149312D01*
X0018019Y0147888D01*
X0018564Y0146571D01*
X0019200Y0145936D01*
X0019200Y0050520D01*
X0018812Y0050681D01*
X0018309Y0050681D01*
X0017500Y0051692D01*
X0017500Y0085790D01*
X0017135Y0086672D01*
X0010792Y0093014D01*
X0011263Y0093484D01*
X0012100Y0095506D01*
X0012100Y0097694D01*
X0011263Y0099715D01*
X0009715Y0101263D01*
X0008901Y0101600D01*
X0009715Y0101937D01*
X0011263Y0103484D01*
X0012100Y0105506D01*
X0012100Y0107694D01*
X0011263Y0109715D01*
X0009715Y0111263D01*
X0008901Y0111600D01*
X0009715Y0111937D01*
X0011263Y0113484D01*
X0012100Y0115506D01*
X0012100Y0117694D01*
X0011263Y0119715D01*
X0009715Y0121263D01*
X0008901Y0121600D01*
X0009715Y0121937D01*
X0011263Y0123484D01*
X0012100Y0125506D01*
X0012100Y0127694D01*
X0011263Y0129715D01*
X0009715Y0131263D01*
X0008901Y0131600D01*
X0009715Y0131937D01*
X0011263Y0133484D01*
X0012100Y0135506D01*
X0012100Y0137694D01*
X0011263Y0139715D01*
X0009715Y0141263D01*
X0007694Y0142100D01*
X0005506Y0142100D01*
X0003484Y0141263D01*
X0003400Y0141178D01*
X0003400Y0145577D01*
X0004777Y0144200D01*
X0008423Y0144200D01*
X0011000Y0146777D01*
X0011000Y0150423D01*
X0008423Y0153000D01*
X0004777Y0153000D01*
X0003400Y0151623D01*
X0003400Y0196600D01*
X0013000Y0196600D01*
X0012318Y0195918D01*
X0011190Y0193194D01*
X0011190Y0190246D01*
X0012318Y0187523D01*
X0014402Y0185438D01*
X0017126Y0184310D01*
X0020074Y0184310D01*
X0022798Y0185438D01*
X0024882Y0187523D01*
X0026010Y0190246D01*
X0025811Y0189766D02*
X0046333Y0189766D01*
X0046333Y0190049D02*
X0046333Y0188151D01*
X0047059Y0186399D01*
X0048401Y0185057D01*
X0050153Y0184331D01*
X0052050Y0184331D01*
X0053803Y0185057D01*
X0055145Y0186399D01*
X0055252Y0186658D01*
X0055267Y0186622D01*
X0056498Y0185391D01*
X0058106Y0184725D01*
X0059846Y0184725D01*
X0061454Y0185391D01*
X0062685Y0186622D01*
X0062913Y0187173D01*
X0063141Y0186622D01*
X0064372Y0185391D01*
X0065980Y0184725D01*
X0067720Y0184725D01*
X0069328Y0185391D01*
X0070559Y0186622D01*
X0070787Y0187173D01*
X0071015Y0186622D01*
X0072246Y0185391D01*
X0073854Y0184725D01*
X0075594Y0184725D01*
X0077202Y0185391D01*
X0078433Y0186622D01*
X0078448Y0186658D01*
X0078555Y0186399D01*
X0079897Y0185057D01*
X0081650Y0184331D01*
X0083547Y0184331D01*
X0085299Y0185057D01*
X0086641Y0186399D01*
X0087367Y0188151D01*
X0087367Y0190049D01*
X0086641Y0191801D01*
X0085299Y0193143D01*
X0083547Y0193868D01*
X0081650Y0193868D01*
X0079897Y0193143D01*
X0078555Y0191801D01*
X0078448Y0191542D01*
X0078433Y0191578D01*
X0077202Y0192809D01*
X0075594Y0193475D01*
X0073854Y0193475D01*
X0072246Y0192809D01*
X0071015Y0191578D01*
X0070787Y0191027D01*
X0070559Y0191578D01*
X0069328Y0192809D01*
X0067720Y0193475D01*
X0065980Y0193475D01*
X0064372Y0192809D01*
X0063141Y0191578D01*
X0062913Y0191027D01*
X0062685Y0191578D01*
X0061454Y0192809D01*
X0059846Y0193475D01*
X0058106Y0193475D01*
X0056498Y0192809D01*
X0055267Y0191578D01*
X0055252Y0191542D01*
X0055145Y0191801D01*
X0053803Y0193143D01*
X0052050Y0193868D01*
X0050153Y0193868D01*
X0048401Y0193143D01*
X0047059Y0191801D01*
X0046333Y0190049D01*
X0046333Y0188568D02*
X0025315Y0188568D01*
X0024729Y0187369D02*
X0036228Y0187369D01*
X0035013Y0186171D02*
X0023530Y0186171D01*
X0021673Y0184972D02*
X0034492Y0184972D01*
X0031042Y0183774D02*
X0027942Y0183774D01*
X0029689Y0182575D02*
X0030079Y0182575D01*
X0026850Y0180350D02*
X0029980Y0177220D01*
X0029980Y0171300D01*
X0036100Y0165180D01*
X0036100Y0093350D01*
X0033700Y0096282D02*
X0024000Y0096282D01*
X0024000Y0095084D02*
X0032942Y0095084D01*
X0032519Y0093885D02*
X0024000Y0093885D01*
X0024000Y0092687D02*
X0032519Y0092687D01*
X0032995Y0091488D02*
X0024000Y0091488D01*
X0024000Y0090290D02*
X0034130Y0090290D01*
X0038070Y0090290D02*
X0038700Y0090290D01*
X0038700Y0089091D02*
X0024000Y0089091D01*
X0024850Y0085600D02*
X0024981Y0085600D01*
X0024981Y0085469D01*
X0024850Y0085600D02*
X0024850Y0037100D01*
X0024981Y0037100D01*
X0028172Y0038754D02*
X0032700Y0038754D01*
X0032700Y0039952D02*
X0027250Y0039952D01*
X0027250Y0041151D02*
X0032700Y0041151D01*
X0032700Y0042349D02*
X0027250Y0042349D01*
X0027250Y0043548D02*
X0032700Y0043548D01*
X0032700Y0044746D02*
X0027250Y0044746D01*
X0027250Y0045945D02*
X0032700Y0045945D01*
X0032700Y0047143D02*
X0027250Y0047143D01*
X0027250Y0048342D02*
X0032700Y0048342D01*
X0032700Y0049540D02*
X0027250Y0049540D01*
X0027250Y0050739D02*
X0032700Y0050739D01*
X0032700Y0051937D02*
X0027250Y0051937D01*
X0027250Y0053136D02*
X0032700Y0053136D01*
X0032700Y0054334D02*
X0027250Y0054334D01*
X0027250Y0055533D02*
X0031976Y0055533D01*
X0031519Y0056732D02*
X0027250Y0056732D01*
X0027250Y0057930D02*
X0031519Y0057930D01*
X0031961Y0059129D02*
X0027250Y0059129D01*
X0027250Y0060327D02*
X0033013Y0060327D01*
X0035100Y0057350D02*
X0035100Y0033100D01*
X0038066Y0036357D02*
X0038700Y0036357D01*
X0038700Y0037555D02*
X0037500Y0037555D01*
X0037500Y0038754D02*
X0038700Y0038754D01*
X0038700Y0039952D02*
X0037500Y0039952D01*
X0037500Y0041151D02*
X0038700Y0041151D01*
X0038700Y0042349D02*
X0037500Y0042349D01*
X0037500Y0043548D02*
X0038700Y0043548D01*
X0038700Y0044746D02*
X0037500Y0044746D01*
X0037500Y0045945D02*
X0038700Y0045945D01*
X0038700Y0047143D02*
X0037500Y0047143D01*
X0037500Y0048342D02*
X0038700Y0048342D01*
X0038700Y0049540D02*
X0037500Y0049540D01*
X0037500Y0050739D02*
X0038700Y0050739D01*
X0038700Y0051937D02*
X0037500Y0051937D01*
X0037500Y0053136D02*
X0038700Y0053136D01*
X0038700Y0054334D02*
X0037500Y0054334D01*
X0038224Y0055533D02*
X0038700Y0055533D01*
X0038681Y0056732D02*
X0038700Y0056732D01*
X0038681Y0057930D02*
X0038700Y0057930D01*
X0038700Y0059129D02*
X0038239Y0059129D01*
X0038700Y0060327D02*
X0037187Y0060327D01*
X0038700Y0061526D02*
X0027250Y0061526D01*
X0027250Y0062724D02*
X0038700Y0062724D01*
X0038700Y0063923D02*
X0027250Y0063923D01*
X0027250Y0065121D02*
X0038700Y0065121D01*
X0038700Y0066320D02*
X0027250Y0066320D01*
X0027250Y0067518D02*
X0038700Y0067518D01*
X0038700Y0068717D02*
X0027250Y0068717D01*
X0027250Y0069915D02*
X0038700Y0069915D01*
X0038700Y0071114D02*
X0027250Y0071114D01*
X0027250Y0072312D02*
X0038700Y0072312D01*
X0038700Y0073511D02*
X0027250Y0073511D01*
X0027250Y0074709D02*
X0038700Y0074709D01*
X0038700Y0075908D02*
X0027250Y0075908D01*
X0027250Y0077106D02*
X0038700Y0077106D01*
X0038700Y0078305D02*
X0027250Y0078305D01*
X0027250Y0079503D02*
X0038700Y0079503D01*
X0038700Y0080702D02*
X0027250Y0080702D01*
X0027250Y0081900D02*
X0038700Y0081900D01*
X0038700Y0083099D02*
X0027675Y0083099D01*
X0028372Y0084297D02*
X0038700Y0084297D01*
X0038700Y0085496D02*
X0028562Y0085496D01*
X0028350Y0086694D02*
X0038700Y0086694D01*
X0038700Y0087893D02*
X0027622Y0087893D01*
X0019200Y0087893D02*
X0015914Y0087893D01*
X0017112Y0086694D02*
X0019200Y0086694D01*
X0019200Y0085496D02*
X0017500Y0085496D01*
X0017500Y0084297D02*
X0019200Y0084297D01*
X0019200Y0083099D02*
X0017500Y0083099D01*
X0017500Y0081900D02*
X0019200Y0081900D01*
X0019200Y0080702D02*
X0017500Y0080702D01*
X0017500Y0079503D02*
X0019200Y0079503D01*
X0019200Y0078305D02*
X0017500Y0078305D01*
X0017500Y0077106D02*
X0019200Y0077106D01*
X0019200Y0075908D02*
X0017500Y0075908D01*
X0017500Y0074709D02*
X0019200Y0074709D01*
X0019200Y0073511D02*
X0017500Y0073511D01*
X0017500Y0072312D02*
X0019200Y0072312D01*
X0019200Y0071114D02*
X0017500Y0071114D01*
X0017500Y0069915D02*
X0019200Y0069915D01*
X0019200Y0068717D02*
X0017500Y0068717D01*
X0017500Y0067518D02*
X0019200Y0067518D01*
X0019200Y0066320D02*
X0017500Y0066320D01*
X0017500Y0065121D02*
X0019200Y0065121D01*
X0019200Y0063923D02*
X0017500Y0063923D01*
X0017500Y0062724D02*
X0019200Y0062724D01*
X0019200Y0061526D02*
X0017500Y0061526D01*
X0017500Y0060327D02*
X0019200Y0060327D01*
X0019200Y0059129D02*
X0017500Y0059129D01*
X0017500Y0057930D02*
X0019200Y0057930D01*
X0019200Y0056732D02*
X0017500Y0056732D01*
X0017500Y0055533D02*
X0019200Y0055533D01*
X0019200Y0054334D02*
X0017500Y0054334D01*
X0017500Y0053136D02*
X0019200Y0053136D01*
X0019200Y0051937D02*
X0017500Y0051937D01*
X0018262Y0050739D02*
X0019200Y0050739D01*
X0018100Y0047100D02*
X0015100Y0050850D01*
X0015100Y0085313D01*
X0006600Y0093812D01*
X0006600Y0096600D01*
X0011692Y0098679D02*
X0019200Y0098679D01*
X0019200Y0097481D02*
X0012100Y0097481D01*
X0012100Y0096282D02*
X0019200Y0096282D01*
X0019200Y0095084D02*
X0011925Y0095084D01*
X0011429Y0093885D02*
X0019200Y0093885D01*
X0019200Y0092687D02*
X0011120Y0092687D01*
X0012318Y0091488D02*
X0019200Y0091488D01*
X0019200Y0090290D02*
X0013517Y0090290D01*
X0014715Y0089091D02*
X0019200Y0089091D01*
X0024000Y0097481D02*
X0033700Y0097481D01*
X0033700Y0098679D02*
X0024000Y0098679D01*
X0024000Y0099878D02*
X0033700Y0099878D01*
X0033700Y0101076D02*
X0024000Y0101076D01*
X0024000Y0102275D02*
X0033700Y0102275D01*
X0033700Y0103473D02*
X0024000Y0103473D01*
X0024000Y0104672D02*
X0033700Y0104672D01*
X0033700Y0105870D02*
X0024000Y0105870D01*
X0024000Y0107069D02*
X0033700Y0107069D01*
X0033700Y0108268D02*
X0024000Y0108268D01*
X0024000Y0109466D02*
X0033700Y0109466D01*
X0033700Y0110665D02*
X0024000Y0110665D01*
X0024000Y0111863D02*
X0033700Y0111863D01*
X0033700Y0113062D02*
X0024000Y0113062D01*
X0024000Y0114260D02*
X0033700Y0114260D01*
X0033700Y0115459D02*
X0024000Y0115459D01*
X0024000Y0116657D02*
X0033700Y0116657D01*
X0033700Y0117856D02*
X0024000Y0117856D01*
X0024000Y0119054D02*
X0033700Y0119054D01*
X0033700Y0120253D02*
X0024000Y0120253D01*
X0024000Y0121451D02*
X0033700Y0121451D01*
X0033700Y0122650D02*
X0024000Y0122650D01*
X0024000Y0123848D02*
X0033700Y0123848D01*
X0033700Y0125047D02*
X0024000Y0125047D01*
X0024000Y0126245D02*
X0033700Y0126245D01*
X0033700Y0127444D02*
X0024000Y0127444D01*
X0024000Y0128642D02*
X0033700Y0128642D01*
X0033700Y0129841D02*
X0024000Y0129841D01*
X0024000Y0131039D02*
X0033700Y0131039D01*
X0033700Y0132238D02*
X0024000Y0132238D01*
X0024000Y0133436D02*
X0033700Y0133436D01*
X0033700Y0134635D02*
X0024000Y0134635D01*
X0024000Y0135833D02*
X0033700Y0135833D01*
X0033700Y0137032D02*
X0024000Y0137032D01*
X0024000Y0138230D02*
X0033700Y0138230D01*
X0033700Y0139429D02*
X0024000Y0139429D01*
X0024000Y0140627D02*
X0033700Y0140627D01*
X0033700Y0141826D02*
X0024000Y0141826D01*
X0024000Y0143024D02*
X0033700Y0143024D01*
X0033700Y0144223D02*
X0024000Y0144223D01*
X0024000Y0145421D02*
X0033700Y0145421D01*
X0033700Y0146620D02*
X0024656Y0146620D01*
X0025152Y0147818D02*
X0033700Y0147818D01*
X0033700Y0149017D02*
X0025181Y0149017D01*
X0024807Y0150215D02*
X0033700Y0150215D01*
X0033700Y0151414D02*
X0023851Y0151414D01*
X0021600Y0148600D02*
X0021600Y0016600D01*
X0024739Y0018379D02*
X0038461Y0018379D01*
X0038019Y0017181D02*
X0025181Y0017181D01*
X0025181Y0015982D02*
X0038019Y0015982D01*
X0038222Y0014784D02*
X0024724Y0014784D01*
X0023650Y0013585D02*
X0037621Y0013585D01*
X0037719Y0013805D02*
X0037719Y0013805D01*
X0035741Y0012387D02*
X0027852Y0012387D01*
X0027750Y0012387D02*
X0026950Y0012387D01*
X0026848Y0012387D02*
X0018959Y0012387D01*
X0019550Y0013585D02*
X0018224Y0013585D01*
X0018476Y0014784D02*
X0017929Y0014784D01*
X0018019Y0015982D02*
X0017633Y0015982D01*
X0017338Y0017181D02*
X0018019Y0017181D01*
X0018461Y0018379D02*
X0017043Y0018379D01*
X0016748Y0019578D02*
X0019200Y0019578D01*
X0019200Y0020776D02*
X0016452Y0020776D01*
X0016157Y0021975D02*
X0019200Y0021975D01*
X0019200Y0023173D02*
X0015862Y0023173D01*
X0015566Y0024372D02*
X0019200Y0024372D01*
X0019200Y0025570D02*
X0015500Y0025570D01*
X0016321Y0026769D02*
X0019200Y0026769D01*
X0019200Y0027967D02*
X0016681Y0027967D01*
X0016638Y0029166D02*
X0019200Y0029166D01*
X0019200Y0030364D02*
X0016142Y0030364D01*
X0015500Y0031563D02*
X0019200Y0031563D01*
X0019200Y0032761D02*
X0015500Y0032761D01*
X0015500Y0033960D02*
X0019200Y0033960D01*
X0019200Y0035158D02*
X0015500Y0035158D01*
X0015500Y0036357D02*
X0019200Y0036357D01*
X0019200Y0037555D02*
X0015500Y0037555D01*
X0015500Y0038754D02*
X0019200Y0038754D01*
X0019200Y0039952D02*
X0015500Y0039952D01*
X0015500Y0041151D02*
X0019200Y0041151D01*
X0019200Y0042349D02*
X0015500Y0042349D01*
X0015500Y0043548D02*
X0017318Y0043548D01*
X0018882Y0043548D02*
X0019200Y0043548D01*
X0010700Y0043548D02*
X0003400Y0043548D01*
X0003400Y0044746D02*
X0010700Y0044746D01*
X0010700Y0045945D02*
X0003400Y0045945D01*
X0003400Y0047143D02*
X0010700Y0047143D01*
X0010700Y0048342D02*
X0003400Y0048342D01*
X0003400Y0049540D02*
X0010700Y0049540D01*
X0010700Y0050739D02*
X0003400Y0050739D01*
X0003400Y0051937D02*
X0010700Y0051937D01*
X0010700Y0053136D02*
X0009359Y0053136D01*
X0009173Y0052950D02*
X0010700Y0054477D01*
X0010700Y0031014D01*
X0010064Y0030379D01*
X0009519Y0029062D01*
X0009519Y0027638D01*
X0010064Y0026321D01*
X0010700Y0025686D01*
X0010700Y0024532D01*
X0010655Y0024239D01*
X0010700Y0024059D01*
X0010700Y0023873D01*
X0010813Y0023599D01*
X0013829Y0011357D01*
X0012687Y0010215D01*
X0012350Y0009401D01*
X0012013Y0010215D01*
X0010465Y0011763D01*
X0008444Y0012600D01*
X0006256Y0012600D01*
X0004234Y0011763D01*
X0003400Y0010928D01*
X0003400Y0015360D01*
X0005610Y0013150D01*
X0007150Y0013150D01*
X0007150Y0017150D01*
X0007550Y0017150D01*
X0007550Y0017550D01*
X0007150Y0017550D01*
X0007150Y0021550D01*
X0005610Y0021550D01*
X0003400Y0019340D01*
X0003400Y0055077D01*
X0005527Y0052950D01*
X0009173Y0052950D01*
X0010557Y0054334D02*
X0010700Y0054334D01*
X0005341Y0053136D02*
X0003400Y0053136D01*
X0003400Y0054334D02*
X0004143Y0054334D01*
X0003400Y0042349D02*
X0010700Y0042349D01*
X0010700Y0041151D02*
X0003400Y0041151D01*
X0003400Y0039952D02*
X0010700Y0039952D01*
X0010700Y0038754D02*
X0003400Y0038754D01*
X0003400Y0037555D02*
X0010700Y0037555D01*
X0010700Y0036357D02*
X0003400Y0036357D01*
X0003400Y0035158D02*
X0010700Y0035158D01*
X0010700Y0033960D02*
X0003400Y0033960D01*
X0003400Y0032761D02*
X0010700Y0032761D01*
X0010700Y0031563D02*
X0003400Y0031563D01*
X0003400Y0030364D02*
X0010058Y0030364D01*
X0009562Y0029166D02*
X0003400Y0029166D01*
X0003400Y0027967D02*
X0009519Y0027967D01*
X0009879Y0026769D02*
X0003400Y0026769D01*
X0003400Y0025570D02*
X0010700Y0025570D01*
X0010676Y0024372D02*
X0003400Y0024372D01*
X0003400Y0023173D02*
X0010918Y0023173D01*
X0011213Y0021975D02*
X0003400Y0021975D01*
X0003400Y0020776D02*
X0004837Y0020776D01*
X0003638Y0019578D02*
X0003400Y0019578D01*
X0007150Y0019578D02*
X0007550Y0019578D01*
X0007550Y0020776D02*
X0007150Y0020776D01*
X0007550Y0021550D02*
X0007550Y0017550D01*
X0011550Y0017550D01*
X0011550Y0019090D01*
X0009090Y0021550D01*
X0007550Y0021550D01*
X0009863Y0020776D02*
X0011509Y0020776D01*
X0011804Y0019578D02*
X0011062Y0019578D01*
X0011550Y0018379D02*
X0012099Y0018379D01*
X0012395Y0017181D02*
X0007550Y0017181D01*
X0007550Y0017150D02*
X0011550Y0017150D01*
X0011550Y0015610D01*
X0009090Y0013150D01*
X0007550Y0013150D01*
X0007550Y0017150D01*
X0007550Y0015982D02*
X0007150Y0015982D01*
X0007150Y0014784D02*
X0007550Y0014784D01*
X0007550Y0013585D02*
X0007150Y0013585D01*
X0005741Y0012387D02*
X0003400Y0012387D01*
X0003400Y0013585D02*
X0005175Y0013585D01*
X0003977Y0014784D02*
X0003400Y0014784D01*
X0003400Y0011188D02*
X0003660Y0011188D01*
X0008959Y0012387D02*
X0013576Y0012387D01*
X0013660Y0011188D02*
X0011040Y0011188D01*
X0012106Y0009990D02*
X0012594Y0009990D01*
X0013280Y0013585D02*
X0009525Y0013585D01*
X0010723Y0014784D02*
X0012985Y0014784D01*
X0012690Y0015982D02*
X0011550Y0015982D01*
X0007550Y0018379D02*
X0007150Y0018379D01*
X0013100Y0024350D02*
X0017350Y0007100D01*
X0021040Y0011188D02*
X0023960Y0011188D01*
X0022898Y0009990D02*
X0022106Y0009990D01*
X0026950Y0009990D02*
X0027750Y0009990D01*
X0027750Y0011188D02*
X0026950Y0011188D01*
X0026950Y0008791D02*
X0027750Y0008791D01*
X0027750Y0007593D02*
X0026950Y0007593D01*
X0030740Y0011188D02*
X0033660Y0011188D01*
X0032594Y0009990D02*
X0031802Y0009990D01*
X0037350Y0007100D02*
X0040105Y0013261D01*
X0040199Y0013219D01*
X0043001Y0013219D01*
X0044981Y0015199D01*
X0049100Y0024410D01*
X0049100Y0033375D01*
X0070499Y0081227D01*
X0078151Y0100719D01*
X0080077Y0102644D01*
X0081459Y0105735D01*
X0080500Y0106693D01*
X0080500Y0110007D01*
X0082843Y0112350D01*
X0084417Y0112350D01*
X0087100Y0118350D01*
X0083383Y0122650D02*
X0053750Y0122650D01*
X0053750Y0123848D02*
X0099200Y0123848D01*
X0099200Y0122650D02*
X0090817Y0122650D01*
X0090575Y0123950D02*
X0092192Y0124620D01*
X0093430Y0125858D01*
X0094100Y0127475D01*
X0094100Y0129225D01*
X0093430Y0130842D01*
X0092192Y0132080D01*
X0090575Y0132750D01*
X0083625Y0132750D01*
X0082008Y0132080D01*
X0080770Y0130842D01*
X0080100Y0129225D01*
X0080100Y0127475D01*
X0080770Y0125858D01*
X0082008Y0124620D01*
X0083625Y0123950D01*
X0090575Y0123950D01*
X0092619Y0125047D02*
X0099200Y0125047D01*
X0099200Y0126245D02*
X0093591Y0126245D01*
X0094087Y0127444D02*
X0099200Y0127444D01*
X0099200Y0128642D02*
X0094100Y0128642D01*
X0093845Y0129841D02*
X0099200Y0129841D01*
X0099200Y0131039D02*
X0093233Y0131039D01*
X0091812Y0132238D02*
X0099200Y0132238D01*
X0099200Y0133436D02*
X0053750Y0133436D01*
X0053750Y0132238D02*
X0082388Y0132238D01*
X0080967Y0131039D02*
X0053750Y0131039D01*
X0053750Y0129841D02*
X0080355Y0129841D01*
X0080100Y0128642D02*
X0053750Y0128642D01*
X0053750Y0127444D02*
X0080113Y0127444D01*
X0080609Y0126245D02*
X0053750Y0126245D01*
X0053750Y0125047D02*
X0081581Y0125047D01*
X0081379Y0121451D02*
X0053750Y0121451D01*
X0053750Y0120253D02*
X0080526Y0120253D01*
X0080100Y0119054D02*
X0053750Y0119054D01*
X0053750Y0117856D02*
X0080100Y0117856D01*
X0080439Y0116657D02*
X0053750Y0116657D01*
X0053750Y0115459D02*
X0081169Y0115459D01*
X0081359Y0114260D02*
X0053750Y0114260D01*
X0053750Y0113062D02*
X0080161Y0113062D01*
X0078962Y0111863D02*
X0053750Y0111863D01*
X0053750Y0110665D02*
X0078175Y0110665D01*
X0078100Y0109466D02*
X0053750Y0109466D01*
X0053750Y0108268D02*
X0078100Y0108268D01*
X0078100Y0107069D02*
X0053750Y0107069D01*
X0053750Y0105870D02*
X0078243Y0105870D01*
X0078354Y0104672D02*
X0053750Y0104672D01*
X0053750Y0103473D02*
X0077512Y0103473D01*
X0076313Y0102275D02*
X0053750Y0102275D01*
X0053750Y0101076D02*
X0075713Y0101076D01*
X0075243Y0099878D02*
X0053750Y0099878D01*
X0053750Y0098679D02*
X0074772Y0098679D01*
X0074302Y0097481D02*
X0053750Y0097481D01*
X0053750Y0096282D02*
X0073831Y0096282D01*
X0073361Y0095084D02*
X0053750Y0095084D01*
X0053750Y0093885D02*
X0072890Y0093885D01*
X0072420Y0092687D02*
X0053750Y0092687D01*
X0053750Y0091488D02*
X0071949Y0091488D01*
X0071479Y0090290D02*
X0053750Y0090290D01*
X0053750Y0089091D02*
X0071008Y0089091D01*
X0070538Y0087893D02*
X0053750Y0087893D01*
X0053750Y0086694D02*
X0070067Y0086694D01*
X0069597Y0085496D02*
X0053750Y0085496D01*
X0053750Y0084297D02*
X0069126Y0084297D01*
X0068655Y0083099D02*
X0053750Y0083099D01*
X0053750Y0081900D02*
X0068171Y0081900D01*
X0067635Y0080702D02*
X0053750Y0080702D01*
X0054541Y0079503D02*
X0067099Y0079503D01*
X0066563Y0078305D02*
X0054931Y0078305D01*
X0054918Y0077106D02*
X0066027Y0077106D01*
X0065491Y0075908D02*
X0054422Y0075908D01*
X0053125Y0074709D02*
X0064955Y0074709D01*
X0064419Y0073511D02*
X0043500Y0073511D01*
X0043500Y0074709D02*
X0049575Y0074709D01*
X0048278Y0075908D02*
X0043500Y0075908D01*
X0043500Y0077106D02*
X0047782Y0077106D01*
X0047769Y0078305D02*
X0043500Y0078305D01*
X0043500Y0079503D02*
X0048159Y0079503D01*
X0048950Y0080702D02*
X0043500Y0080702D01*
X0043500Y0081900D02*
X0048950Y0081900D01*
X0048950Y0083099D02*
X0043500Y0083099D01*
X0043500Y0084297D02*
X0048950Y0084297D01*
X0048950Y0085496D02*
X0043500Y0085496D01*
X0043500Y0086694D02*
X0048950Y0086694D01*
X0048950Y0087893D02*
X0043500Y0087893D01*
X0043500Y0089091D02*
X0048950Y0089091D01*
X0048950Y0090290D02*
X0043500Y0090290D01*
X0043500Y0091488D02*
X0048950Y0091488D01*
X0048950Y0092687D02*
X0043500Y0092687D01*
X0043500Y0093885D02*
X0048950Y0093885D01*
X0048950Y0095084D02*
X0043500Y0095084D01*
X0043500Y0096282D02*
X0048950Y0096282D01*
X0048950Y0097481D02*
X0043500Y0097481D01*
X0043500Y0098679D02*
X0048950Y0098679D01*
X0048950Y0099878D02*
X0043500Y0099878D01*
X0043500Y0101076D02*
X0048950Y0101076D01*
X0048950Y0102275D02*
X0043500Y0102275D01*
X0043500Y0103473D02*
X0048950Y0103473D01*
X0048950Y0104672D02*
X0043500Y0104672D01*
X0043500Y0105870D02*
X0048950Y0105870D01*
X0048950Y0107069D02*
X0043500Y0107069D01*
X0043500Y0108268D02*
X0048950Y0108268D01*
X0048950Y0109466D02*
X0043500Y0109466D01*
X0043500Y0110665D02*
X0048950Y0110665D01*
X0048950Y0111863D02*
X0043500Y0111863D01*
X0043500Y0113062D02*
X0048950Y0113062D01*
X0048950Y0114260D02*
X0043500Y0114260D01*
X0043500Y0115459D02*
X0048950Y0115459D01*
X0048950Y0116657D02*
X0043500Y0116657D01*
X0043500Y0117856D02*
X0048950Y0117856D01*
X0048950Y0119054D02*
X0043500Y0119054D01*
X0043500Y0120253D02*
X0048950Y0120253D01*
X0048950Y0121451D02*
X0043500Y0121451D01*
X0043500Y0122650D02*
X0048950Y0122650D01*
X0048950Y0123848D02*
X0043500Y0123848D01*
X0043500Y0125047D02*
X0048950Y0125047D01*
X0048950Y0126245D02*
X0043500Y0126245D01*
X0043500Y0127444D02*
X0048950Y0127444D01*
X0048950Y0128642D02*
X0043500Y0128642D01*
X0043500Y0129841D02*
X0048950Y0129841D01*
X0048950Y0131039D02*
X0043500Y0131039D01*
X0043500Y0132238D02*
X0048950Y0132238D01*
X0048950Y0133436D02*
X0043500Y0133436D01*
X0043500Y0134635D02*
X0048950Y0134635D01*
X0048950Y0135833D02*
X0043500Y0135833D01*
X0043500Y0137032D02*
X0048950Y0137032D01*
X0048950Y0138230D02*
X0043500Y0138230D01*
X0043500Y0139429D02*
X0048950Y0139429D01*
X0048950Y0140627D02*
X0043500Y0140627D01*
X0043500Y0141826D02*
X0048950Y0141826D01*
X0048950Y0143024D02*
X0043500Y0143024D01*
X0043500Y0144223D02*
X0044755Y0144223D01*
X0043556Y0145421D02*
X0043500Y0145421D01*
X0048445Y0144223D02*
X0048950Y0144223D01*
X0053750Y0144223D02*
X0082966Y0144223D01*
X0083625Y0143950D02*
X0090575Y0143950D01*
X0092192Y0144620D01*
X0093430Y0145858D01*
X0094100Y0147475D01*
X0094100Y0149225D01*
X0093430Y0150842D01*
X0092192Y0152080D01*
X0090575Y0152750D01*
X0083625Y0152750D01*
X0082008Y0152080D01*
X0080770Y0150842D01*
X0080100Y0149225D01*
X0080100Y0147475D01*
X0080770Y0145858D01*
X0082008Y0144620D01*
X0083625Y0143950D01*
X0083625Y0142750D02*
X0082008Y0142080D01*
X0080770Y0140842D01*
X0080100Y0139225D01*
X0080100Y0137475D01*
X0080770Y0135858D01*
X0082008Y0134620D01*
X0083625Y0133950D01*
X0090575Y0133950D01*
X0092192Y0134620D01*
X0093430Y0135858D01*
X0094100Y0137475D01*
X0094100Y0139225D01*
X0093430Y0140842D01*
X0092192Y0142080D01*
X0090575Y0142750D01*
X0083625Y0142750D01*
X0081753Y0141826D02*
X0053750Y0141826D01*
X0053750Y0143024D02*
X0099200Y0143024D01*
X0099200Y0141826D02*
X0092447Y0141826D01*
X0093519Y0140627D02*
X0099200Y0140627D01*
X0099200Y0139429D02*
X0094016Y0139429D01*
X0094100Y0138230D02*
X0099200Y0138230D01*
X0099200Y0137032D02*
X0093916Y0137032D01*
X0093406Y0135833D02*
X0099200Y0135833D01*
X0099200Y0134635D02*
X0092207Y0134635D01*
X0091234Y0144223D02*
X0098913Y0144223D01*
X0098212Y0145421D02*
X0092994Y0145421D01*
X0093746Y0146620D02*
X0098019Y0146620D01*
X0098229Y0147818D02*
X0094100Y0147818D01*
X0094100Y0149017D02*
X0098952Y0149017D01*
X0101600Y0146600D02*
X0101600Y0098850D01*
X0101600Y0028600D01*
X0101600Y0006600D01*
X0104894Y0005196D02*
X0116450Y0005196D01*
X0116450Y0006394D02*
X0105181Y0006394D01*
X0105065Y0007593D02*
X0116450Y0007593D01*
X0117069Y0008791D02*
X0104473Y0008791D01*
X0104000Y0009990D02*
X0118267Y0009990D01*
X0123433Y0009990D02*
X0158267Y0009990D01*
X0157069Y0008791D02*
X0124631Y0008791D01*
X0125250Y0007593D02*
X0156450Y0007593D01*
X0156450Y0006394D02*
X0125250Y0006394D01*
X0125250Y0005196D02*
X0156450Y0005196D01*
X0156980Y0003997D02*
X0124720Y0003997D01*
X0116980Y0003997D02*
X0104061Y0003997D01*
X0099139Y0003997D02*
X0052018Y0003997D01*
X0052514Y0005196D02*
X0098306Y0005196D01*
X0098019Y0006394D02*
X0052850Y0006394D01*
X0052850Y0007593D02*
X0098135Y0007593D01*
X0098727Y0008791D02*
X0052603Y0008791D01*
X0052106Y0009990D02*
X0091646Y0009990D01*
X0091821Y0009814D02*
X0093138Y0009269D01*
X0094562Y0009269D01*
X0095879Y0009814D01*
X0096886Y0010821D01*
X0097431Y0012138D01*
X0097431Y0013562D01*
X0096886Y0014879D01*
X0096100Y0015664D01*
X0096100Y0040484D01*
X0095735Y0041366D01*
X0095059Y0042041D01*
X0092337Y0044764D01*
X0093430Y0045858D01*
X0094100Y0047475D01*
X0094100Y0049225D01*
X0093430Y0050842D01*
X0092192Y0052080D01*
X0090575Y0052750D01*
X0083625Y0052750D01*
X0082008Y0052080D01*
X0080770Y0050842D01*
X0080100Y0049225D01*
X0080100Y0047475D01*
X0080770Y0045858D01*
X0082008Y0044620D01*
X0083625Y0043950D01*
X0086363Y0043950D01*
X0087563Y0042750D01*
X0083625Y0042750D01*
X0082008Y0042080D01*
X0080770Y0040842D01*
X0080100Y0039225D01*
X0080100Y0037475D01*
X0080770Y0035858D01*
X0082008Y0034620D01*
X0083625Y0033950D01*
X0090575Y0033950D01*
X0091300Y0034250D01*
X0091300Y0032450D01*
X0090575Y0032750D01*
X0083625Y0032750D01*
X0082008Y0032080D01*
X0080770Y0030842D01*
X0080100Y0029225D01*
X0080100Y0027475D01*
X0080770Y0025858D01*
X0082008Y0024620D01*
X0083625Y0023950D01*
X0090575Y0023950D01*
X0091300Y0024250D01*
X0091300Y0022450D01*
X0090575Y0022750D01*
X0083625Y0022750D01*
X0082008Y0022080D01*
X0080770Y0020842D01*
X0080100Y0019225D01*
X0080100Y0017475D01*
X0080770Y0015858D01*
X0082008Y0014620D01*
X0083625Y0013950D01*
X0090429Y0013950D01*
X0090269Y0013562D01*
X0090269Y0012138D01*
X0090814Y0010821D01*
X0091821Y0009814D01*
X0090662Y0011188D02*
X0051533Y0011188D01*
X0052004Y0012387D02*
X0090269Y0012387D01*
X0090278Y0013585D02*
X0052474Y0013585D01*
X0052945Y0014784D02*
X0069727Y0014784D01*
X0070110Y0014400D02*
X0067650Y0016860D01*
X0067650Y0018400D01*
X0071650Y0018400D01*
X0071650Y0018800D01*
X0071650Y0022800D01*
X0070110Y0022800D01*
X0067650Y0020340D01*
X0067650Y0018800D01*
X0071650Y0018800D01*
X0072050Y0018800D01*
X0072050Y0022800D01*
X0073590Y0022800D01*
X0076050Y0020340D01*
X0076050Y0018800D01*
X0072050Y0018800D01*
X0072050Y0018400D01*
X0076050Y0018400D01*
X0076050Y0016860D01*
X0073590Y0014400D01*
X0072050Y0014400D01*
X0072050Y0018400D01*
X0071650Y0018400D01*
X0071650Y0014400D01*
X0070110Y0014400D01*
X0071650Y0014784D02*
X0072050Y0014784D01*
X0072050Y0015982D02*
X0071650Y0015982D01*
X0071650Y0017181D02*
X0072050Y0017181D01*
X0072050Y0018379D02*
X0071650Y0018379D01*
X0071650Y0019578D02*
X0072050Y0019578D01*
X0072050Y0020776D02*
X0071650Y0020776D01*
X0071650Y0021975D02*
X0072050Y0021975D01*
X0073673Y0024200D02*
X0070027Y0024200D01*
X0067450Y0026777D01*
X0067450Y0030423D01*
X0070027Y0033000D01*
X0073673Y0033000D01*
X0076250Y0030423D01*
X0076250Y0026777D01*
X0073673Y0024200D01*
X0073844Y0024372D02*
X0082607Y0024372D01*
X0081057Y0025570D02*
X0075043Y0025570D01*
X0076241Y0026769D02*
X0080392Y0026769D01*
X0080100Y0027967D02*
X0076250Y0027967D01*
X0076250Y0029166D02*
X0080100Y0029166D01*
X0080572Y0030364D02*
X0076250Y0030364D01*
X0075110Y0031563D02*
X0081490Y0031563D01*
X0083601Y0033960D02*
X0060473Y0033960D01*
X0060944Y0035158D02*
X0081469Y0035158D01*
X0080563Y0036357D02*
X0061414Y0036357D01*
X0061885Y0037555D02*
X0080100Y0037555D01*
X0080100Y0038754D02*
X0062355Y0038754D01*
X0062826Y0039952D02*
X0080401Y0039952D01*
X0081078Y0041151D02*
X0063296Y0041151D01*
X0063767Y0042349D02*
X0082658Y0042349D01*
X0081881Y0044746D02*
X0078025Y0044746D01*
X0078660Y0045945D02*
X0080734Y0045945D01*
X0080237Y0047143D02*
X0079100Y0047143D01*
X0079100Y0048342D02*
X0080100Y0048342D01*
X0080231Y0049540D02*
X0078956Y0049540D01*
X0078460Y0050739D02*
X0080727Y0050739D01*
X0081865Y0051937D02*
X0077541Y0051937D01*
X0075814Y0053136D02*
X0099200Y0053136D01*
X0099200Y0054334D02*
X0091503Y0054334D01*
X0092192Y0054620D02*
X0093430Y0055858D01*
X0094100Y0057475D01*
X0094100Y0059225D01*
X0093430Y0060842D01*
X0092192Y0062080D01*
X0090575Y0062750D01*
X0083625Y0062750D01*
X0082008Y0062080D01*
X0080770Y0060842D01*
X0080100Y0059225D01*
X0080100Y0057475D01*
X0080770Y0055858D01*
X0082008Y0054620D01*
X0083625Y0053950D01*
X0090575Y0053950D01*
X0092192Y0054620D01*
X0093106Y0055533D02*
X0099200Y0055533D01*
X0099200Y0056732D02*
X0093792Y0056732D01*
X0094100Y0057930D02*
X0099200Y0057930D01*
X0099200Y0059129D02*
X0094100Y0059129D01*
X0093644Y0060327D02*
X0099200Y0060327D01*
X0099200Y0061526D02*
X0092747Y0061526D01*
X0090638Y0062724D02*
X0099200Y0062724D01*
X0099200Y0063923D02*
X0077201Y0063923D01*
X0076199Y0062724D02*
X0083562Y0062724D01*
X0083625Y0063950D02*
X0090575Y0063950D01*
X0092192Y0064620D01*
X0093430Y0065858D01*
X0094100Y0067475D01*
X0094100Y0069225D01*
X0093430Y0070842D01*
X0092192Y0072080D01*
X0090575Y0072750D01*
X0083625Y0072750D01*
X0082008Y0072080D01*
X0080770Y0070842D01*
X0080100Y0069225D01*
X0080100Y0067475D01*
X0080770Y0065858D01*
X0082008Y0064620D01*
X0083625Y0063950D01*
X0081506Y0065121D02*
X0078319Y0065121D01*
X0078816Y0066320D02*
X0080578Y0066320D01*
X0080100Y0067518D02*
X0079100Y0067518D01*
X0079100Y0068717D02*
X0080100Y0068717D01*
X0080386Y0069915D02*
X0078801Y0069915D01*
X0078305Y0071114D02*
X0081041Y0071114D01*
X0082568Y0072312D02*
X0077166Y0072312D01*
X0074910Y0073511D02*
X0099200Y0073511D01*
X0099200Y0074709D02*
X0091806Y0074709D01*
X0091901Y0074758D02*
X0092436Y0075146D01*
X0092904Y0075614D01*
X0093292Y0076149D01*
X0093592Y0076738D01*
X0093797Y0077366D01*
X0093900Y0078019D01*
X0093900Y0078150D01*
X0087300Y0078150D01*
X0087300Y0078550D01*
X0086900Y0078550D01*
X0086900Y0082550D01*
X0084169Y0082550D01*
X0083516Y0082447D01*
X0082888Y0082242D01*
X0082299Y0081942D01*
X0081764Y0081554D01*
X0081296Y0081086D01*
X0080908Y0080551D01*
X0080608Y0079962D01*
X0080403Y0079334D01*
X0080300Y0078681D01*
X0080300Y0078550D01*
X0086900Y0078550D01*
X0086900Y0078150D01*
X0087300Y0078150D01*
X0087300Y0074150D01*
X0090031Y0074150D01*
X0090684Y0074253D01*
X0091312Y0074458D01*
X0091901Y0074758D01*
X0093117Y0075908D02*
X0099200Y0075908D01*
X0099200Y0077106D02*
X0093712Y0077106D01*
X0093900Y0078550D02*
X0093900Y0078681D01*
X0093797Y0079334D01*
X0093592Y0079962D01*
X0093292Y0080551D01*
X0092904Y0081086D01*
X0092436Y0081554D01*
X0091901Y0081942D01*
X0091312Y0082242D01*
X0090684Y0082447D01*
X0090031Y0082550D01*
X0087300Y0082550D01*
X0087300Y0078550D01*
X0093900Y0078550D01*
X0093741Y0079503D02*
X0099200Y0079503D01*
X0099200Y0078305D02*
X0087300Y0078305D01*
X0086900Y0078305D02*
X0074255Y0078305D01*
X0074726Y0079503D02*
X0080459Y0079503D01*
X0081017Y0080702D02*
X0075196Y0080702D01*
X0075667Y0081900D02*
X0082241Y0081900D01*
X0082786Y0084297D02*
X0076608Y0084297D01*
X0076137Y0083099D02*
X0099200Y0083099D01*
X0099200Y0084297D02*
X0091414Y0084297D01*
X0092192Y0084620D02*
X0093430Y0085858D01*
X0094100Y0087475D01*
X0094100Y0089225D01*
X0093430Y0090842D01*
X0092192Y0092080D01*
X0090575Y0092750D01*
X0083625Y0092750D01*
X0082008Y0092080D01*
X0080770Y0090842D01*
X0080100Y0089225D01*
X0080100Y0087475D01*
X0080770Y0085858D01*
X0082008Y0084620D01*
X0083625Y0083950D01*
X0090575Y0083950D01*
X0092192Y0084620D01*
X0093068Y0085496D02*
X0099200Y0085496D01*
X0099200Y0086694D02*
X0093777Y0086694D01*
X0094100Y0087893D02*
X0099200Y0087893D01*
X0099200Y0089091D02*
X0094100Y0089091D01*
X0093659Y0090290D02*
X0099200Y0090290D01*
X0099200Y0091488D02*
X0092784Y0091488D01*
X0090728Y0092687D02*
X0099200Y0092687D01*
X0099200Y0093885D02*
X0080372Y0093885D01*
X0079902Y0092687D02*
X0083472Y0092687D01*
X0081416Y0091488D02*
X0079431Y0091488D01*
X0078961Y0090290D02*
X0080541Y0090290D01*
X0080100Y0089091D02*
X0078490Y0089091D01*
X0078019Y0087893D02*
X0080100Y0087893D01*
X0080423Y0086694D02*
X0077549Y0086694D01*
X0077078Y0085496D02*
X0081132Y0085496D01*
X0086900Y0081900D02*
X0087300Y0081900D01*
X0087300Y0080702D02*
X0086900Y0080702D01*
X0086900Y0079503D02*
X0087300Y0079503D01*
X0086900Y0078150D02*
X0080300Y0078150D01*
X0080300Y0078019D01*
X0080403Y0077366D01*
X0080608Y0076738D01*
X0080908Y0076149D01*
X0081296Y0075614D01*
X0081764Y0075146D01*
X0082299Y0074758D01*
X0082888Y0074458D01*
X0083516Y0074253D01*
X0084169Y0074150D01*
X0086900Y0074150D01*
X0086900Y0078150D01*
X0086900Y0077106D02*
X0087300Y0077106D01*
X0087300Y0075908D02*
X0086900Y0075908D01*
X0086900Y0074709D02*
X0087300Y0074709D01*
X0091632Y0072312D02*
X0099200Y0072312D01*
X0099200Y0071114D02*
X0093159Y0071114D01*
X0093814Y0069915D02*
X0099200Y0069915D01*
X0099200Y0068717D02*
X0094100Y0068717D01*
X0094100Y0067518D02*
X0099200Y0067518D01*
X0099200Y0066320D02*
X0093621Y0066320D01*
X0092694Y0065121D02*
X0099200Y0065121D01*
X0109500Y0065121D02*
X0111506Y0065121D01*
X0112008Y0064620D02*
X0113625Y0063950D01*
X0120575Y0063950D01*
X0122192Y0064620D01*
X0123430Y0065858D01*
X0124100Y0067475D01*
X0124100Y0069225D01*
X0123430Y0070842D01*
X0122192Y0072080D01*
X0120575Y0072750D01*
X0113625Y0072750D01*
X0112008Y0072080D01*
X0110770Y0070842D01*
X0110100Y0069225D01*
X0110100Y0067475D01*
X0110770Y0065858D01*
X0112008Y0064620D01*
X0110578Y0066320D02*
X0109500Y0066320D01*
X0109500Y0067518D02*
X0110100Y0067518D01*
X0110100Y0068717D02*
X0109500Y0068717D01*
X0109500Y0069915D02*
X0110386Y0069915D01*
X0111041Y0071114D02*
X0109500Y0071114D01*
X0109500Y0072312D02*
X0112568Y0072312D01*
X0113625Y0073950D02*
X0120575Y0073950D01*
X0122192Y0074620D01*
X0123430Y0075858D01*
X0124100Y0077475D01*
X0124100Y0079225D01*
X0123430Y0080842D01*
X0122192Y0082080D01*
X0120575Y0082750D01*
X0113625Y0082750D01*
X0112008Y0082080D01*
X0110770Y0080842D01*
X0110100Y0079225D01*
X0110100Y0077475D01*
X0110770Y0075858D01*
X0112008Y0074620D01*
X0113625Y0073950D01*
X0111918Y0074709D02*
X0109500Y0074709D01*
X0109500Y0073511D02*
X0188926Y0073511D01*
X0188430Y0074709D02*
X0122282Y0074709D01*
X0123451Y0075908D02*
X0188100Y0075908D01*
X0188100Y0077106D02*
X0123947Y0077106D01*
X0124100Y0078305D02*
X0188353Y0078305D01*
X0188849Y0079503D02*
X0123985Y0079503D01*
X0123488Y0080702D02*
X0189924Y0080702D01*
X0190574Y0081900D02*
X0122372Y0081900D01*
X0121414Y0084297D02*
X0188601Y0084297D01*
X0188104Y0085496D02*
X0123068Y0085496D01*
X0123430Y0085858D02*
X0124100Y0087475D01*
X0124100Y0089225D01*
X0123430Y0090842D01*
X0122192Y0092080D01*
X0120575Y0092750D01*
X0113625Y0092750D01*
X0112008Y0092080D01*
X0110770Y0090842D01*
X0110100Y0089225D01*
X0110100Y0087475D01*
X0110770Y0085858D01*
X0112008Y0084620D01*
X0113625Y0083950D01*
X0120575Y0083950D01*
X0122192Y0084620D01*
X0123430Y0085858D01*
X0123777Y0086694D02*
X0188100Y0086694D01*
X0188182Y0087893D02*
X0124100Y0087893D01*
X0124100Y0089091D02*
X0188679Y0089091D01*
X0189512Y0090290D02*
X0123659Y0090290D01*
X0122784Y0091488D02*
X0191029Y0091488D01*
X0189735Y0092687D02*
X0120728Y0092687D01*
X0120575Y0093950D02*
X0122192Y0094620D01*
X0123430Y0095858D01*
X0124100Y0097475D01*
X0124100Y0099225D01*
X0123430Y0100842D01*
X0122192Y0102080D01*
X0120575Y0102750D01*
X0113625Y0102750D01*
X0112008Y0102080D01*
X0110770Y0100842D01*
X0110100Y0099225D01*
X0110100Y0097475D01*
X0110770Y0095858D01*
X0112008Y0094620D01*
X0113625Y0093950D01*
X0120575Y0093950D01*
X0122656Y0095084D02*
X0188275Y0095084D01*
X0188100Y0096282D02*
X0123606Y0096282D01*
X0124100Y0097481D02*
X0188100Y0097481D01*
X0188508Y0098679D02*
X0124100Y0098679D01*
X0123830Y0099878D02*
X0189100Y0099878D01*
X0190298Y0101076D02*
X0123196Y0101076D01*
X0121722Y0102275D02*
X0190147Y0102275D01*
X0188948Y0103473D02*
X0109500Y0103473D01*
X0109500Y0102275D02*
X0112478Y0102275D01*
X0111004Y0101076D02*
X0109500Y0101076D01*
X0109500Y0099878D02*
X0110370Y0099878D01*
X0110100Y0098679D02*
X0109500Y0098679D01*
X0109500Y0097481D02*
X0110100Y0097481D01*
X0110594Y0096282D02*
X0109500Y0096282D01*
X0109500Y0095084D02*
X0111544Y0095084D01*
X0109500Y0093885D02*
X0188771Y0093885D01*
X0188445Y0104672D02*
X0122245Y0104672D01*
X0122192Y0104620D02*
X0123430Y0105858D01*
X0124100Y0107475D01*
X0124100Y0109225D01*
X0123430Y0110842D01*
X0122192Y0112080D01*
X0120575Y0112750D01*
X0113625Y0112750D01*
X0112008Y0112080D01*
X0110770Y0110842D01*
X0110100Y0109225D01*
X0110100Y0107475D01*
X0110770Y0105858D01*
X0112008Y0104620D01*
X0113625Y0103950D01*
X0120575Y0103950D01*
X0122192Y0104620D01*
X0123435Y0105870D02*
X0188100Y0105870D01*
X0188100Y0107069D02*
X0123932Y0107069D01*
X0124100Y0108268D02*
X0188338Y0108268D01*
X0188834Y0109466D02*
X0124000Y0109466D01*
X0123504Y0110665D02*
X0189886Y0110665D01*
X0190664Y0111863D02*
X0122409Y0111863D01*
X0121324Y0114260D02*
X0188616Y0114260D01*
X0188120Y0115459D02*
X0123031Y0115459D01*
X0123430Y0115858D02*
X0122192Y0114620D01*
X0120575Y0113950D01*
X0113625Y0113950D01*
X0112008Y0114620D01*
X0110770Y0115858D01*
X0110100Y0117475D01*
X0110100Y0119225D01*
X0110770Y0120842D01*
X0112008Y0122080D01*
X0113625Y0122750D01*
X0120575Y0122750D01*
X0122192Y0122080D01*
X0123430Y0120842D01*
X0124100Y0119225D01*
X0124100Y0117475D01*
X0123430Y0115858D01*
X0123761Y0116657D02*
X0188100Y0116657D01*
X0188167Y0117856D02*
X0124100Y0117856D01*
X0124100Y0119054D02*
X0188663Y0119054D01*
X0189474Y0120253D02*
X0123674Y0120253D01*
X0122821Y0121451D02*
X0190940Y0121451D01*
X0189772Y0122650D02*
X0120817Y0122650D01*
X0120575Y0123950D02*
X0122192Y0124620D01*
X0123430Y0125858D01*
X0124100Y0127475D01*
X0124100Y0129225D01*
X0123430Y0130842D01*
X0122192Y0132080D01*
X0120575Y0132750D01*
X0113625Y0132750D01*
X0112008Y0132080D01*
X0110770Y0130842D01*
X0110100Y0129225D01*
X0110100Y0127475D01*
X0110770Y0125858D01*
X0112008Y0124620D01*
X0113625Y0123950D01*
X0120575Y0123950D01*
X0122619Y0125047D02*
X0188290Y0125047D01*
X0188100Y0126245D02*
X0123591Y0126245D01*
X0124087Y0127444D02*
X0188100Y0127444D01*
X0188493Y0128642D02*
X0124100Y0128642D01*
X0123845Y0129841D02*
X0189063Y0129841D01*
X0190261Y0131039D02*
X0123233Y0131039D01*
X0121812Y0132238D02*
X0190184Y0132238D01*
X0188986Y0133436D02*
X0109500Y0133436D01*
X0109500Y0132238D02*
X0112388Y0132238D01*
X0110967Y0131039D02*
X0109500Y0131039D01*
X0109500Y0129841D02*
X0110355Y0129841D01*
X0110100Y0128642D02*
X0109500Y0128642D01*
X0109500Y0127444D02*
X0110113Y0127444D01*
X0110609Y0126245D02*
X0109500Y0126245D01*
X0109500Y0125047D02*
X0111581Y0125047D01*
X0109500Y0123848D02*
X0188787Y0123848D01*
X0189360Y0113062D02*
X0109500Y0113062D01*
X0109500Y0114260D02*
X0112876Y0114260D01*
X0111169Y0115459D02*
X0109500Y0115459D01*
X0109500Y0116657D02*
X0110439Y0116657D01*
X0110100Y0117856D02*
X0109500Y0117856D01*
X0109500Y0119054D02*
X0110100Y0119054D01*
X0110526Y0120253D02*
X0109500Y0120253D01*
X0109500Y0121451D02*
X0111379Y0121451D01*
X0109500Y0122650D02*
X0113383Y0122650D01*
X0111791Y0111863D02*
X0109500Y0111863D01*
X0109500Y0110665D02*
X0110696Y0110665D01*
X0110200Y0109466D02*
X0109500Y0109466D01*
X0109500Y0108268D02*
X0110100Y0108268D01*
X0110268Y0107069D02*
X0109500Y0107069D01*
X0109500Y0105870D02*
X0110765Y0105870D01*
X0111955Y0104672D02*
X0109500Y0104672D01*
X0099200Y0104672D02*
X0092245Y0104672D01*
X0093435Y0105870D02*
X0099200Y0105870D01*
X0099200Y0107069D02*
X0093932Y0107069D01*
X0094100Y0108268D02*
X0099200Y0108268D01*
X0099200Y0109466D02*
X0094000Y0109466D01*
X0093504Y0110665D02*
X0099200Y0110665D01*
X0099200Y0111863D02*
X0092409Y0111863D01*
X0091324Y0114260D02*
X0099200Y0114260D01*
X0099200Y0113062D02*
X0087364Y0113062D01*
X0087100Y0108350D02*
X0084744Y0102350D01*
X0082843Y0102350D01*
X0080001Y0099508D01*
X0068500Y0070213D01*
X0068500Y0065988D01*
X0069914Y0064574D01*
X0047350Y0007100D01*
X0053415Y0015982D02*
X0068528Y0015982D01*
X0067650Y0017181D02*
X0053886Y0017181D01*
X0054356Y0018379D02*
X0067650Y0018379D01*
X0067650Y0019578D02*
X0054827Y0019578D01*
X0055297Y0020776D02*
X0068086Y0020776D01*
X0069285Y0021975D02*
X0055768Y0021975D01*
X0056239Y0023173D02*
X0091300Y0023173D01*
X0096100Y0023173D02*
X0099200Y0023173D01*
X0099200Y0021975D02*
X0096100Y0021975D01*
X0096100Y0020776D02*
X0099200Y0020776D01*
X0099200Y0019578D02*
X0096100Y0019578D01*
X0096100Y0018379D02*
X0099200Y0018379D01*
X0099200Y0017181D02*
X0096100Y0017181D01*
X0096100Y0015982D02*
X0099200Y0015982D01*
X0099200Y0014784D02*
X0096925Y0014784D01*
X0097422Y0013585D02*
X0099200Y0013585D01*
X0099200Y0012387D02*
X0097431Y0012387D01*
X0097038Y0011188D02*
X0099200Y0011188D01*
X0099200Y0009990D02*
X0096054Y0009990D01*
X0093850Y0012850D02*
X0093700Y0013000D01*
X0093700Y0040007D01*
X0087100Y0046607D01*
X0087100Y0048350D01*
X0086765Y0043548D02*
X0076826Y0043548D01*
X0070374Y0043548D02*
X0064237Y0043548D01*
X0064708Y0044746D02*
X0069175Y0044746D01*
X0068539Y0045945D02*
X0065179Y0045945D01*
X0065649Y0047143D02*
X0068100Y0047143D01*
X0068100Y0048342D02*
X0066120Y0048342D01*
X0066590Y0049540D02*
X0068244Y0049540D01*
X0068740Y0050739D02*
X0067061Y0050739D01*
X0067531Y0051937D02*
X0069659Y0051937D01*
X0068002Y0053136D02*
X0071386Y0053136D01*
X0069870Y0054334D02*
X0068472Y0054334D01*
X0068943Y0055533D02*
X0068960Y0055533D01*
X0074000Y0057930D02*
X0080100Y0057930D01*
X0080100Y0059129D02*
X0078803Y0059129D01*
X0078414Y0060327D02*
X0080556Y0060327D01*
X0081453Y0061526D02*
X0077662Y0061526D01*
X0078728Y0056732D02*
X0080408Y0056732D01*
X0081094Y0055533D02*
X0078240Y0055533D01*
X0077330Y0054334D02*
X0082697Y0054334D01*
X0092335Y0051937D02*
X0099200Y0051937D01*
X0099200Y0050739D02*
X0093473Y0050739D01*
X0093969Y0049540D02*
X0099200Y0049540D01*
X0099200Y0048342D02*
X0094100Y0048342D01*
X0093963Y0047143D02*
X0099200Y0047143D01*
X0099200Y0045945D02*
X0093466Y0045945D01*
X0092355Y0044746D02*
X0099200Y0044746D01*
X0099200Y0043548D02*
X0093553Y0043548D01*
X0094752Y0042349D02*
X0099200Y0042349D01*
X0099200Y0041151D02*
X0095824Y0041151D01*
X0095059Y0042041D02*
X0095059Y0042041D01*
X0096100Y0039952D02*
X0099200Y0039952D01*
X0099200Y0038754D02*
X0096100Y0038754D01*
X0096100Y0037555D02*
X0099200Y0037555D01*
X0099200Y0036357D02*
X0096100Y0036357D01*
X0096100Y0035158D02*
X0099200Y0035158D01*
X0099200Y0033960D02*
X0096100Y0033960D01*
X0096100Y0032761D02*
X0099200Y0032761D01*
X0099200Y0031563D02*
X0096100Y0031563D01*
X0096100Y0030364D02*
X0098455Y0030364D01*
X0098019Y0029166D02*
X0096100Y0029166D01*
X0096100Y0027967D02*
X0098019Y0027967D01*
X0098482Y0026769D02*
X0096100Y0026769D01*
X0096100Y0025570D02*
X0099200Y0025570D01*
X0099200Y0024372D02*
X0096100Y0024372D01*
X0104000Y0024372D02*
X0107684Y0024372D01*
X0106486Y0025570D02*
X0104000Y0025570D01*
X0104718Y0026769D02*
X0105287Y0026769D01*
X0107100Y0028350D02*
X0117100Y0018350D01*
X0111844Y0014784D02*
X0104000Y0014784D01*
X0104000Y0015982D02*
X0110718Y0015982D01*
X0110222Y0017181D02*
X0104000Y0017181D01*
X0104000Y0018379D02*
X0110100Y0018379D01*
X0110246Y0019578D02*
X0104000Y0019578D01*
X0104000Y0020776D02*
X0110742Y0020776D01*
X0110081Y0021975D02*
X0104000Y0021975D01*
X0104000Y0023173D02*
X0108883Y0023173D01*
X0107100Y0028350D02*
X0107100Y0168850D01*
X0103945Y0170590D02*
X0102063Y0170590D01*
X0101673Y0170200D02*
X0104250Y0172777D01*
X0104250Y0176423D01*
X0101673Y0179000D01*
X0098027Y0179000D01*
X0095450Y0176423D01*
X0095450Y0172777D01*
X0098027Y0170200D01*
X0101673Y0170200D01*
X0103519Y0169392D02*
X0087250Y0169392D01*
X0087250Y0170590D02*
X0097637Y0170590D01*
X0096439Y0171789D02*
X0086134Y0171789D01*
X0087250Y0170673D02*
X0084673Y0173250D01*
X0081027Y0173250D01*
X0078450Y0170673D01*
X0078450Y0167027D01*
X0081027Y0164450D01*
X0084673Y0164450D01*
X0087250Y0167027D01*
X0087250Y0170673D01*
X0087250Y0168193D02*
X0103519Y0168193D01*
X0103992Y0166995D02*
X0087217Y0166995D01*
X0086019Y0165796D02*
X0104700Y0165796D01*
X0104700Y0164598D02*
X0084820Y0164598D01*
X0084590Y0163050D02*
X0083050Y0163050D01*
X0083050Y0159050D01*
X0082650Y0159050D01*
X0082650Y0163050D01*
X0081110Y0163050D01*
X0078650Y0160590D01*
X0078650Y0159050D01*
X0082650Y0159050D01*
X0082650Y0158650D01*
X0078650Y0158650D01*
X0078650Y0157110D01*
X0081110Y0154650D01*
X0082650Y0154650D01*
X0082650Y0158650D01*
X0083050Y0158650D01*
X0083050Y0159050D01*
X0087050Y0159050D01*
X0087050Y0160590D01*
X0084590Y0163050D01*
X0085439Y0162201D02*
X0104700Y0162201D01*
X0104700Y0163399D02*
X0053750Y0163399D01*
X0053750Y0162201D02*
X0080261Y0162201D01*
X0079062Y0161002D02*
X0053750Y0161002D01*
X0053750Y0159803D02*
X0078650Y0159803D01*
X0078650Y0158605D02*
X0053750Y0158605D01*
X0053750Y0157406D02*
X0056082Y0157406D01*
X0054680Y0156208D02*
X0053750Y0156208D01*
X0053750Y0155009D02*
X0053895Y0155009D01*
X0053885Y0150215D02*
X0053750Y0150215D01*
X0053750Y0149017D02*
X0054655Y0149017D01*
X0053750Y0147818D02*
X0056022Y0147818D01*
X0053750Y0146620D02*
X0080454Y0146620D01*
X0080100Y0147818D02*
X0061678Y0147818D01*
X0063045Y0149017D02*
X0080100Y0149017D01*
X0080510Y0150215D02*
X0063815Y0150215D01*
X0064312Y0151414D02*
X0081341Y0151414D01*
X0083293Y0152612D02*
X0064350Y0152612D01*
X0064302Y0153811D02*
X0104700Y0153811D01*
X0104700Y0155009D02*
X0084949Y0155009D01*
X0084590Y0154650D02*
X0087050Y0157110D01*
X0087050Y0158650D01*
X0083050Y0158650D01*
X0083050Y0154650D01*
X0084590Y0154650D01*
X0083050Y0155009D02*
X0082650Y0155009D01*
X0082650Y0156208D02*
X0083050Y0156208D01*
X0083050Y0157406D02*
X0082650Y0157406D01*
X0082650Y0158605D02*
X0083050Y0158605D01*
X0083050Y0159803D02*
X0082650Y0159803D01*
X0082650Y0161002D02*
X0083050Y0161002D01*
X0083050Y0162201D02*
X0082650Y0162201D01*
X0080880Y0164598D02*
X0053750Y0164598D01*
X0053750Y0165796D02*
X0079681Y0165796D01*
X0078483Y0166995D02*
X0053750Y0166995D01*
X0053750Y0168193D02*
X0055899Y0168193D01*
X0054630Y0169392D02*
X0053750Y0169392D01*
X0053750Y0170590D02*
X0053930Y0170590D01*
X0058450Y0170590D02*
X0059250Y0170590D01*
X0059250Y0169392D02*
X0058450Y0169392D01*
X0058450Y0168193D02*
X0059250Y0168193D01*
X0059250Y0167300D02*
X0059267Y0167300D01*
X0060091Y0167430D01*
X0060884Y0167688D01*
X0061628Y0168067D01*
X0062303Y0168557D01*
X0062893Y0169147D01*
X0063383Y0169822D01*
X0063762Y0170566D01*
X0064019Y0171359D01*
X0064150Y0172183D01*
X0064150Y0172200D01*
X0059250Y0172200D01*
X0059250Y0167300D01*
X0061801Y0168193D02*
X0078450Y0168193D01*
X0078450Y0169392D02*
X0063070Y0169392D01*
X0063770Y0170590D02*
X0078450Y0170590D01*
X0079566Y0171789D02*
X0064088Y0171789D01*
X0064150Y0173000D02*
X0064150Y0173017D01*
X0064019Y0173841D01*
X0063762Y0174634D01*
X0063383Y0175378D01*
X0062893Y0176053D01*
X0062303Y0176643D01*
X0061628Y0177133D01*
X0060884Y0177512D01*
X0060091Y0177769D01*
X0059267Y0177900D01*
X0059250Y0177900D01*
X0059250Y0173000D01*
X0064150Y0173000D01*
X0063908Y0174186D02*
X0095450Y0174186D01*
X0095450Y0175384D02*
X0063378Y0175384D01*
X0062363Y0176583D02*
X0095610Y0176583D01*
X0096673Y0177700D02*
X0099250Y0180277D01*
X0099250Y0183923D01*
X0096673Y0186500D01*
X0093027Y0186500D01*
X0090450Y0183923D01*
X0090450Y0180277D01*
X0093027Y0177700D01*
X0096673Y0177700D01*
X0096754Y0177781D02*
X0096809Y0177781D01*
X0097952Y0178980D02*
X0098007Y0178980D01*
X0099151Y0180178D02*
X0100832Y0180178D01*
X0100650Y0180360D02*
X0103110Y0177900D01*
X0104650Y0177900D01*
X0104650Y0181900D01*
X0105050Y0181900D01*
X0105050Y0182300D01*
X0109050Y0182300D01*
X0109050Y0183840D01*
X0106590Y0186300D01*
X0105050Y0186300D01*
X0105050Y0182300D01*
X0104650Y0182300D01*
X0104650Y0186300D01*
X0103110Y0186300D01*
X0100650Y0183840D01*
X0100650Y0182300D01*
X0104650Y0182300D01*
X0104650Y0181900D01*
X0100650Y0181900D01*
X0100650Y0180360D01*
X0100650Y0181377D02*
X0099250Y0181377D01*
X0099250Y0182575D02*
X0100650Y0182575D01*
X0100650Y0183774D02*
X0099250Y0183774D01*
X0098200Y0184972D02*
X0101783Y0184972D01*
X0102981Y0186171D02*
X0097002Y0186171D01*
X0092698Y0186171D02*
X0086412Y0186171D01*
X0087043Y0187369D02*
X0124566Y0187369D01*
X0124975Y0187200D02*
X0126725Y0187200D01*
X0128342Y0187870D01*
X0129580Y0189108D01*
X0130250Y0190725D01*
X0130250Y0192475D01*
X0129580Y0194092D01*
X0128342Y0195330D01*
X0126725Y0196000D01*
X0124975Y0196000D01*
X0123358Y0195330D01*
X0122120Y0194092D01*
X0121450Y0192475D01*
X0121450Y0190725D01*
X0122120Y0189108D01*
X0123358Y0187870D01*
X0124975Y0187200D01*
X0127134Y0187369D02*
X0138200Y0187369D01*
X0138200Y0187923D02*
X0138200Y0185094D01*
X0135241Y0182135D01*
X0134565Y0181459D01*
X0134200Y0180577D01*
X0134200Y0152423D01*
X0132200Y0150423D01*
X0132200Y0146777D01*
X0134777Y0144200D01*
X0138423Y0144200D01*
X0141000Y0146777D01*
X0141000Y0150423D01*
X0139000Y0152423D01*
X0139000Y0173760D01*
X0140860Y0171900D01*
X0142400Y0171900D01*
X0142400Y0175900D01*
X0142800Y0175900D01*
X0142800Y0176300D01*
X0142400Y0176300D01*
X0142400Y0180300D01*
X0140860Y0180300D01*
X0139000Y0178440D01*
X0139000Y0179106D01*
X0141594Y0181700D01*
X0144423Y0181700D01*
X0147000Y0184277D01*
X0147000Y0187923D01*
X0144423Y0190500D01*
X0140777Y0190500D01*
X0138200Y0187923D01*
X0138845Y0188568D02*
X0129040Y0188568D01*
X0129853Y0189766D02*
X0140044Y0189766D01*
X0138200Y0186171D02*
X0106719Y0186171D01*
X0105050Y0186171D02*
X0104650Y0186171D01*
X0104650Y0184972D02*
X0105050Y0184972D01*
X0105050Y0183774D02*
X0104650Y0183774D01*
X0104650Y0182575D02*
X0105050Y0182575D01*
X0105050Y0181900D02*
X0109050Y0181900D01*
X0109050Y0180360D01*
X0106590Y0177900D01*
X0105050Y0177900D01*
X0105050Y0181900D01*
X0105050Y0181377D02*
X0104650Y0181377D01*
X0104650Y0180178D02*
X0105050Y0180178D01*
X0105050Y0178980D02*
X0104650Y0178980D01*
X0102891Y0177781D02*
X0134200Y0177781D01*
X0134200Y0176583D02*
X0104090Y0176583D01*
X0104250Y0175384D02*
X0123694Y0175384D01*
X0124110Y0175800D02*
X0121650Y0173340D01*
X0121650Y0171800D01*
X0125650Y0171800D01*
X0125650Y0175800D01*
X0124110Y0175800D01*
X0125650Y0175384D02*
X0126050Y0175384D01*
X0126050Y0175800D02*
X0126050Y0171800D01*
X0125650Y0171800D01*
X0125650Y0171400D01*
X0121650Y0171400D01*
X0121650Y0169860D01*
X0124110Y0167400D01*
X0125650Y0167400D01*
X0125650Y0171400D01*
X0126050Y0171400D01*
X0126050Y0171800D01*
X0130050Y0171800D01*
X0130050Y0173340D01*
X0127590Y0175800D01*
X0126050Y0175800D01*
X0126050Y0174186D02*
X0125650Y0174186D01*
X0125650Y0172987D02*
X0126050Y0172987D01*
X0126050Y0171789D02*
X0134200Y0171789D01*
X0134200Y0172987D02*
X0130050Y0172987D01*
X0129204Y0174186D02*
X0134200Y0174186D01*
X0134200Y0175384D02*
X0128006Y0175384D01*
X0125650Y0171789D02*
X0109226Y0171789D01*
X0110255Y0170590D02*
X0121650Y0170590D01*
X0122119Y0169392D02*
X0110681Y0169392D01*
X0110681Y0168193D02*
X0123317Y0168193D01*
X0125650Y0168193D02*
X0126050Y0168193D01*
X0126050Y0167400D02*
X0127590Y0167400D01*
X0130050Y0169860D01*
X0130050Y0171400D01*
X0126050Y0171400D01*
X0126050Y0167400D01*
X0126050Y0169392D02*
X0125650Y0169392D01*
X0125650Y0170590D02*
X0126050Y0170590D01*
X0128383Y0168193D02*
X0134200Y0168193D01*
X0134200Y0166995D02*
X0110208Y0166995D01*
X0109500Y0165796D02*
X0134200Y0165796D01*
X0134200Y0164598D02*
X0109500Y0164598D01*
X0109500Y0163399D02*
X0134200Y0163399D01*
X0134200Y0162201D02*
X0109500Y0162201D01*
X0109500Y0161002D02*
X0134200Y0161002D01*
X0134200Y0159803D02*
X0109500Y0159803D01*
X0109500Y0158605D02*
X0134200Y0158605D01*
X0134200Y0157406D02*
X0109500Y0157406D01*
X0109500Y0156208D02*
X0134200Y0156208D01*
X0134200Y0155009D02*
X0109500Y0155009D01*
X0109500Y0153811D02*
X0134200Y0153811D01*
X0134200Y0152612D02*
X0120907Y0152612D01*
X0120575Y0152750D02*
X0122192Y0152080D01*
X0123430Y0150842D01*
X0124100Y0149225D01*
X0124100Y0147475D01*
X0123430Y0145858D01*
X0122192Y0144620D01*
X0120575Y0143950D01*
X0113625Y0143950D01*
X0112008Y0144620D01*
X0110770Y0145858D01*
X0110100Y0147475D01*
X0110100Y0149225D01*
X0110770Y0150842D01*
X0112008Y0152080D01*
X0113625Y0152750D01*
X0120575Y0152750D01*
X0122859Y0151414D02*
X0133191Y0151414D01*
X0132200Y0150215D02*
X0123690Y0150215D01*
X0124100Y0149017D02*
X0132200Y0149017D01*
X0132200Y0147818D02*
X0124100Y0147818D01*
X0123746Y0146620D02*
X0132358Y0146620D01*
X0133556Y0145421D02*
X0122994Y0145421D01*
X0121234Y0144223D02*
X0134755Y0144223D01*
X0134860Y0142800D02*
X0132400Y0140340D01*
X0132400Y0138800D01*
X0136400Y0138800D01*
X0136400Y0142800D01*
X0134860Y0142800D01*
X0133886Y0141826D02*
X0122061Y0141826D01*
X0121901Y0141942D02*
X0121312Y0142242D01*
X0120684Y0142447D01*
X0120031Y0142550D01*
X0117300Y0142550D01*
X0117300Y0138550D01*
X0116900Y0138550D01*
X0116900Y0142550D01*
X0114169Y0142550D01*
X0113516Y0142447D01*
X0112888Y0142242D01*
X0112299Y0141942D01*
X0111764Y0141554D01*
X0111296Y0141086D01*
X0110908Y0140551D01*
X0110608Y0139962D01*
X0110403Y0139334D01*
X0110300Y0138681D01*
X0110300Y0138550D01*
X0116900Y0138550D01*
X0116900Y0138150D01*
X0117300Y0138150D01*
X0117300Y0138550D01*
X0123900Y0138550D01*
X0123900Y0138681D01*
X0123797Y0139334D01*
X0123592Y0139962D01*
X0123292Y0140551D01*
X0122904Y0141086D01*
X0122436Y0141554D01*
X0121901Y0141942D01*
X0123237Y0140627D02*
X0132688Y0140627D01*
X0132400Y0139429D02*
X0123766Y0139429D01*
X0123900Y0138150D02*
X0117300Y0138150D01*
X0117300Y0134150D01*
X0120031Y0134150D01*
X0120684Y0134253D01*
X0121312Y0134458D01*
X0121901Y0134758D01*
X0122436Y0135146D01*
X0122904Y0135614D01*
X0123292Y0136149D01*
X0123592Y0136738D01*
X0123797Y0137366D01*
X0123900Y0138019D01*
X0123900Y0138150D01*
X0123688Y0137032D02*
X0132400Y0137032D01*
X0132400Y0136860D02*
X0134860Y0134400D01*
X0136400Y0134400D01*
X0136400Y0138400D01*
X0132400Y0138400D01*
X0132400Y0136860D01*
X0132400Y0138230D02*
X0117300Y0138230D01*
X0116900Y0138230D02*
X0109500Y0138230D01*
X0110300Y0138150D02*
X0110300Y0138019D01*
X0110403Y0137366D01*
X0110608Y0136738D01*
X0110908Y0136149D01*
X0111296Y0135614D01*
X0111764Y0135146D01*
X0112299Y0134758D01*
X0112888Y0134458D01*
X0113516Y0134253D01*
X0114169Y0134150D01*
X0116900Y0134150D01*
X0116900Y0138150D01*
X0110300Y0138150D01*
X0110512Y0137032D02*
X0109500Y0137032D01*
X0109500Y0135833D02*
X0111137Y0135833D01*
X0112540Y0134635D02*
X0109500Y0134635D01*
X0109500Y0139429D02*
X0110434Y0139429D01*
X0110963Y0140627D02*
X0109500Y0140627D01*
X0109500Y0141826D02*
X0112139Y0141826D01*
X0112966Y0144223D02*
X0109500Y0144223D01*
X0109500Y0145421D02*
X0111206Y0145421D01*
X0110454Y0146620D02*
X0109500Y0146620D01*
X0109500Y0147818D02*
X0110100Y0147818D01*
X0110100Y0149017D02*
X0109500Y0149017D01*
X0109500Y0150215D02*
X0110510Y0150215D01*
X0111341Y0151414D02*
X0109500Y0151414D01*
X0109500Y0152612D02*
X0113293Y0152612D01*
X0104700Y0152612D02*
X0090907Y0152612D01*
X0092859Y0151414D02*
X0104700Y0151414D01*
X0104700Y0150215D02*
X0093690Y0150215D01*
X0086148Y0156208D02*
X0104700Y0156208D01*
X0104700Y0157406D02*
X0087050Y0157406D01*
X0087050Y0158605D02*
X0104700Y0158605D01*
X0104700Y0159803D02*
X0087050Y0159803D01*
X0086638Y0161002D02*
X0104700Y0161002D01*
X0104700Y0149017D02*
X0104248Y0149017D01*
X0109500Y0143024D02*
X0196650Y0143024D01*
X0196650Y0141826D02*
X0195356Y0141826D01*
X0196650Y0144223D02*
X0138445Y0144223D01*
X0138340Y0142800D02*
X0136800Y0142800D01*
X0136800Y0138800D01*
X0136400Y0138800D01*
X0136400Y0138400D01*
X0136800Y0138400D01*
X0136800Y0138800D01*
X0140800Y0138800D01*
X0140800Y0140340D01*
X0138340Y0142800D01*
X0139314Y0141826D02*
X0191844Y0141826D01*
X0189849Y0140627D02*
X0140512Y0140627D01*
X0140800Y0139429D02*
X0188819Y0139429D01*
X0188322Y0138230D02*
X0140800Y0138230D01*
X0140800Y0138400D02*
X0136800Y0138400D01*
X0136800Y0134400D01*
X0138340Y0134400D01*
X0140800Y0136860D01*
X0140800Y0138400D01*
X0140800Y0137032D02*
X0188100Y0137032D01*
X0188100Y0135833D02*
X0139773Y0135833D01*
X0138574Y0134635D02*
X0188461Y0134635D01*
X0188400Y0146650D02*
X0186860Y0146650D01*
X0184400Y0149110D01*
X0184400Y0150650D01*
X0188400Y0150650D01*
X0188400Y0151050D01*
X0188400Y0155050D01*
X0186860Y0155050D01*
X0184400Y0152590D01*
X0184400Y0151050D01*
X0188400Y0151050D01*
X0188800Y0151050D01*
X0188800Y0155050D01*
X0190340Y0155050D01*
X0192800Y0152590D01*
X0192800Y0151050D01*
X0188800Y0151050D01*
X0188800Y0150650D01*
X0192800Y0150650D01*
X0192800Y0149110D01*
X0190340Y0146650D01*
X0188800Y0146650D01*
X0188800Y0150650D01*
X0188400Y0150650D01*
X0188400Y0146650D01*
X0188400Y0147818D02*
X0188800Y0147818D01*
X0188800Y0149017D02*
X0188400Y0149017D01*
X0188400Y0150215D02*
X0188800Y0150215D01*
X0188800Y0151414D02*
X0188400Y0151414D01*
X0188400Y0152612D02*
X0188800Y0152612D01*
X0188800Y0153811D02*
X0188400Y0153811D01*
X0188400Y0155009D02*
X0188800Y0155009D01*
X0190380Y0155009D02*
X0196650Y0155009D01*
X0196650Y0153811D02*
X0191579Y0153811D01*
X0192777Y0152612D02*
X0196650Y0152612D01*
X0196650Y0151414D02*
X0192800Y0151414D01*
X0192800Y0150215D02*
X0196650Y0150215D01*
X0196650Y0149017D02*
X0192707Y0149017D01*
X0191508Y0147818D02*
X0196650Y0147818D01*
X0196650Y0146620D02*
X0140842Y0146620D01*
X0141000Y0147818D02*
X0185692Y0147818D01*
X0184493Y0149017D02*
X0141000Y0149017D01*
X0141000Y0150215D02*
X0184400Y0150215D01*
X0184400Y0151414D02*
X0140009Y0151414D01*
X0139000Y0152612D02*
X0184423Y0152612D01*
X0185621Y0153811D02*
X0139000Y0153811D01*
X0139000Y0155009D02*
X0186820Y0155009D01*
X0196650Y0156208D02*
X0139000Y0156208D01*
X0139000Y0157406D02*
X0196650Y0157406D01*
X0196650Y0158605D02*
X0139000Y0158605D01*
X0139000Y0159803D02*
X0196650Y0159803D01*
X0196650Y0161002D02*
X0139000Y0161002D01*
X0139000Y0162201D02*
X0196650Y0162201D01*
X0196650Y0163399D02*
X0139000Y0163399D01*
X0139000Y0164598D02*
X0196650Y0164598D01*
X0196650Y0165796D02*
X0139000Y0165796D01*
X0139000Y0166995D02*
X0196650Y0166995D01*
X0196650Y0168193D02*
X0139000Y0168193D01*
X0139000Y0169392D02*
X0196650Y0169392D01*
X0196650Y0170590D02*
X0139000Y0170590D01*
X0139000Y0171789D02*
X0196650Y0171789D01*
X0196650Y0172987D02*
X0145427Y0172987D01*
X0144340Y0171900D02*
X0146800Y0174360D01*
X0146800Y0175900D01*
X0142800Y0175900D01*
X0142800Y0171900D01*
X0144340Y0171900D01*
X0142800Y0172987D02*
X0142400Y0172987D01*
X0142400Y0174186D02*
X0142800Y0174186D01*
X0142800Y0175384D02*
X0142400Y0175384D01*
X0142800Y0176300D02*
X0146800Y0176300D01*
X0146800Y0177840D01*
X0144340Y0180300D01*
X0142800Y0180300D01*
X0142800Y0176300D01*
X0142800Y0176583D02*
X0142400Y0176583D01*
X0142400Y0177781D02*
X0142800Y0177781D01*
X0142800Y0178980D02*
X0142400Y0178980D01*
X0142400Y0180178D02*
X0142800Y0180178D01*
X0144461Y0180178D02*
X0196650Y0180178D01*
X0196650Y0178980D02*
X0145660Y0178980D01*
X0146800Y0177781D02*
X0196650Y0177781D01*
X0196650Y0176583D02*
X0146800Y0176583D01*
X0146800Y0175384D02*
X0196650Y0175384D01*
X0196650Y0174186D02*
X0146625Y0174186D01*
X0140739Y0180178D02*
X0140072Y0180178D01*
X0139540Y0178980D02*
X0139000Y0178980D01*
X0136600Y0180100D02*
X0136600Y0148600D01*
X0139644Y0145421D02*
X0196650Y0145421D01*
X0196650Y0181377D02*
X0141271Y0181377D01*
X0145298Y0182575D02*
X0154402Y0182575D01*
X0154777Y0182200D02*
X0158423Y0182200D01*
X0161000Y0184777D01*
X0161000Y0188423D01*
X0158423Y0191000D01*
X0154777Y0191000D01*
X0152200Y0188423D01*
X0152200Y0184777D01*
X0154777Y0182200D01*
X0153204Y0183774D02*
X0146496Y0183774D01*
X0147000Y0184972D02*
X0152200Y0184972D01*
X0152200Y0186171D02*
X0147000Y0186171D01*
X0147000Y0187369D02*
X0152200Y0187369D01*
X0152345Y0188568D02*
X0146355Y0188568D01*
X0145156Y0189766D02*
X0153544Y0189766D01*
X0154742Y0190965D02*
X0130250Y0190965D01*
X0130250Y0192163D02*
X0184200Y0192163D01*
X0184200Y0192673D02*
X0184200Y0189027D01*
X0186777Y0186450D01*
X0190423Y0186450D01*
X0193000Y0189027D01*
X0193000Y0192673D01*
X0190423Y0195250D01*
X0186777Y0195250D01*
X0184200Y0192673D01*
X0184889Y0193362D02*
X0129883Y0193362D01*
X0129112Y0194560D02*
X0186088Y0194560D01*
X0184200Y0190965D02*
X0168458Y0190965D01*
X0168423Y0191000D02*
X0164777Y0191000D01*
X0162200Y0188423D01*
X0162200Y0184777D01*
X0164777Y0182200D01*
X0168423Y0182200D01*
X0171000Y0184777D01*
X0171000Y0188423D01*
X0168423Y0191000D01*
X0169656Y0189766D02*
X0184200Y0189766D01*
X0184660Y0188568D02*
X0170855Y0188568D01*
X0171000Y0187369D02*
X0185858Y0187369D01*
X0191342Y0187369D02*
X0196650Y0187369D01*
X0196650Y0186171D02*
X0171000Y0186171D01*
X0171000Y0184972D02*
X0196650Y0184972D01*
X0196650Y0183774D02*
X0169996Y0183774D01*
X0168798Y0182575D02*
X0196650Y0182575D01*
X0196650Y0188568D02*
X0192540Y0188568D01*
X0193000Y0189766D02*
X0196650Y0189766D01*
X0196650Y0190965D02*
X0193000Y0190965D01*
X0193000Y0192163D02*
X0196650Y0192163D01*
X0196650Y0193362D02*
X0192311Y0193362D01*
X0191112Y0194560D02*
X0196650Y0194560D01*
X0196650Y0195759D02*
X0127307Y0195759D01*
X0124393Y0195759D02*
X0024948Y0195759D01*
X0025444Y0194560D02*
X0122588Y0194560D01*
X0121817Y0193362D02*
X0084770Y0193362D01*
X0086278Y0192163D02*
X0121450Y0192163D01*
X0121450Y0190965D02*
X0086987Y0190965D01*
X0087367Y0189766D02*
X0121847Y0189766D01*
X0122660Y0188568D02*
X0087367Y0188568D01*
X0085093Y0184972D02*
X0091500Y0184972D01*
X0090450Y0183774D02*
X0043054Y0183774D01*
X0042969Y0182575D02*
X0090450Y0182575D01*
X0090450Y0181377D02*
X0042473Y0181377D01*
X0042037Y0180178D02*
X0049114Y0180178D01*
X0048149Y0178980D02*
X0042739Y0178980D01*
X0043054Y0177781D02*
X0047769Y0177781D01*
X0047792Y0176583D02*
X0043054Y0176583D01*
X0042600Y0175384D02*
X0048288Y0175384D01*
X0048950Y0174186D02*
X0041701Y0174186D01*
X0042378Y0172987D02*
X0048950Y0172987D01*
X0048950Y0171789D02*
X0042789Y0171789D01*
X0042833Y0170590D02*
X0048950Y0170590D01*
X0048950Y0169392D02*
X0042519Y0169392D01*
X0041725Y0168193D02*
X0048950Y0168193D01*
X0048950Y0166995D02*
X0040508Y0166995D01*
X0041706Y0165796D02*
X0048950Y0165796D01*
X0048950Y0164598D02*
X0042905Y0164598D01*
X0043500Y0163399D02*
X0048950Y0163399D01*
X0048950Y0162201D02*
X0043500Y0162201D01*
X0043500Y0161002D02*
X0048950Y0161002D01*
X0048950Y0159803D02*
X0043500Y0159803D01*
X0043500Y0158605D02*
X0048950Y0158605D01*
X0048950Y0157406D02*
X0043500Y0157406D01*
X0043500Y0156208D02*
X0048950Y0156208D01*
X0048950Y0155009D02*
X0043500Y0155009D01*
X0043500Y0153811D02*
X0048950Y0153811D01*
X0048950Y0152612D02*
X0048810Y0152612D01*
X0044390Y0152612D02*
X0043500Y0152612D01*
X0033700Y0152612D02*
X0008810Y0152612D01*
X0010009Y0151414D02*
X0019349Y0151414D01*
X0018393Y0150215D02*
X0011000Y0150215D01*
X0011000Y0149017D02*
X0018019Y0149017D01*
X0018048Y0147818D02*
X0011000Y0147818D01*
X0010842Y0146620D02*
X0018544Y0146620D01*
X0019200Y0145421D02*
X0009644Y0145421D01*
X0008445Y0144223D02*
X0019200Y0144223D01*
X0019200Y0143024D02*
X0003400Y0143024D01*
X0003400Y0141826D02*
X0004844Y0141826D01*
X0004755Y0144223D02*
X0003400Y0144223D01*
X0003400Y0145421D02*
X0003556Y0145421D01*
X0008356Y0141826D02*
X0019200Y0141826D01*
X0019200Y0140627D02*
X0010351Y0140627D01*
X0011381Y0139429D02*
X0019200Y0139429D01*
X0019200Y0138230D02*
X0011878Y0138230D01*
X0012100Y0137032D02*
X0019200Y0137032D01*
X0019200Y0135833D02*
X0012100Y0135833D01*
X0011739Y0134635D02*
X0019200Y0134635D01*
X0019200Y0133436D02*
X0011214Y0133436D01*
X0010016Y0132238D02*
X0019200Y0132238D01*
X0019200Y0131039D02*
X0009939Y0131039D01*
X0011137Y0129841D02*
X0019200Y0129841D01*
X0019200Y0128642D02*
X0011707Y0128642D01*
X0012100Y0127444D02*
X0019200Y0127444D01*
X0019200Y0126245D02*
X0012100Y0126245D01*
X0011910Y0125047D02*
X0019200Y0125047D01*
X0019200Y0123848D02*
X0011413Y0123848D01*
X0010428Y0122650D02*
X0019200Y0122650D01*
X0019200Y0121451D02*
X0009260Y0121451D01*
X0010726Y0120253D02*
X0019200Y0120253D01*
X0019200Y0119054D02*
X0011537Y0119054D01*
X0012033Y0117856D02*
X0019200Y0117856D01*
X0019200Y0116657D02*
X0012100Y0116657D01*
X0012080Y0115459D02*
X0019200Y0115459D01*
X0019200Y0114260D02*
X0011584Y0114260D01*
X0010840Y0113062D02*
X0019200Y0113062D01*
X0019200Y0111863D02*
X0009536Y0111863D01*
X0010314Y0110665D02*
X0019200Y0110665D01*
X0019200Y0109466D02*
X0011366Y0109466D01*
X0011862Y0108268D02*
X0019200Y0108268D01*
X0019200Y0107069D02*
X0012100Y0107069D01*
X0012100Y0105870D02*
X0019200Y0105870D01*
X0019200Y0104672D02*
X0011755Y0104672D01*
X0011252Y0103473D02*
X0019200Y0103473D01*
X0019200Y0102275D02*
X0010053Y0102275D01*
X0009902Y0101076D02*
X0019200Y0101076D01*
X0019200Y0099878D02*
X0011100Y0099878D01*
X0013100Y0076600D02*
X0006600Y0076600D01*
X0013100Y0076600D02*
X0013100Y0028350D01*
X0013100Y0024350D01*
X0024000Y0024372D02*
X0039200Y0024372D01*
X0039200Y0025570D02*
X0024000Y0025570D01*
X0024000Y0026769D02*
X0039200Y0026769D01*
X0039200Y0027967D02*
X0024000Y0027967D01*
X0024000Y0029166D02*
X0032812Y0029166D01*
X0031613Y0030364D02*
X0024000Y0030364D01*
X0024000Y0031563D02*
X0030700Y0031563D01*
X0030700Y0032761D02*
X0024000Y0032761D01*
X0026758Y0033960D02*
X0030700Y0033960D01*
X0030936Y0035158D02*
X0028053Y0035158D01*
X0028549Y0036357D02*
X0032134Y0036357D01*
X0032700Y0037555D02*
X0028562Y0037555D01*
X0037388Y0029166D02*
X0039200Y0029166D01*
X0038949Y0030364D02*
X0038587Y0030364D01*
X0041100Y0031443D02*
X0041100Y0163008D01*
X0034704Y0169404D01*
X0034704Y0173451D01*
X0033954Y0174200D01*
X0027580Y0174186D02*
X0003400Y0174186D01*
X0003400Y0175384D02*
X0027580Y0175384D01*
X0027223Y0176583D02*
X0003400Y0176583D01*
X0003400Y0177781D02*
X0024354Y0177781D01*
X0023541Y0178980D02*
X0003400Y0178980D01*
X0003400Y0180178D02*
X0023269Y0180178D01*
X0023399Y0181377D02*
X0003400Y0181377D01*
X0003400Y0182575D02*
X0024011Y0182575D01*
X0025758Y0183774D02*
X0003400Y0183774D01*
X0003400Y0184972D02*
X0015527Y0184972D01*
X0013670Y0186171D02*
X0003400Y0186171D01*
X0003400Y0187369D02*
X0012471Y0187369D01*
X0011885Y0188568D02*
X0003400Y0188568D01*
X0003400Y0189766D02*
X0011388Y0189766D01*
X0011190Y0190965D02*
X0003400Y0190965D01*
X0003400Y0192163D02*
X0011190Y0192163D01*
X0011259Y0193362D02*
X0003400Y0193362D01*
X0003400Y0194560D02*
X0011756Y0194560D01*
X0012252Y0195759D02*
X0003400Y0195759D01*
X0025941Y0193362D02*
X0048930Y0193362D01*
X0047422Y0192163D02*
X0026010Y0192163D01*
X0041130Y0187369D02*
X0046657Y0187369D01*
X0047288Y0186171D02*
X0042344Y0186171D01*
X0042866Y0184972D02*
X0048607Y0184972D01*
X0053597Y0184972D02*
X0057509Y0184972D01*
X0055718Y0186171D02*
X0054916Y0186171D01*
X0054782Y0192163D02*
X0055852Y0192163D01*
X0057833Y0193362D02*
X0053274Y0193362D01*
X0060119Y0193362D02*
X0065707Y0193362D01*
X0067993Y0193362D02*
X0073581Y0193362D01*
X0075867Y0193362D02*
X0080426Y0193362D01*
X0078918Y0192163D02*
X0077848Y0192163D01*
X0077982Y0186171D02*
X0078784Y0186171D01*
X0080103Y0184972D02*
X0076191Y0184972D01*
X0073257Y0184972D02*
X0068317Y0184972D01*
X0070108Y0186171D02*
X0071466Y0186171D01*
X0071600Y0192163D02*
X0069974Y0192163D01*
X0063726Y0192163D02*
X0062100Y0192163D01*
X0062234Y0186171D02*
X0063592Y0186171D01*
X0065383Y0184972D02*
X0060443Y0184972D01*
X0060017Y0177781D02*
X0092946Y0177781D01*
X0091748Y0178980D02*
X0054551Y0178980D01*
X0054931Y0177781D02*
X0057683Y0177781D01*
X0058450Y0177781D02*
X0059250Y0177781D01*
X0059250Y0176583D02*
X0058450Y0176583D01*
X0058450Y0175384D02*
X0059250Y0175384D01*
X0059250Y0174186D02*
X0058450Y0174186D01*
X0059250Y0172987D02*
X0080765Y0172987D01*
X0084935Y0172987D02*
X0095450Y0172987D01*
X0101693Y0178980D02*
X0102031Y0178980D01*
X0104250Y0174186D02*
X0122496Y0174186D01*
X0121650Y0172987D02*
X0104250Y0172987D01*
X0104974Y0171789D02*
X0103261Y0171789D01*
X0107669Y0178980D02*
X0134200Y0178980D01*
X0134200Y0180178D02*
X0108868Y0180178D01*
X0109050Y0181377D02*
X0134531Y0181377D01*
X0135681Y0182575D02*
X0109050Y0182575D01*
X0109050Y0183774D02*
X0136880Y0183774D01*
X0138078Y0184972D02*
X0107917Y0184972D01*
X0090549Y0180178D02*
X0053586Y0180178D01*
X0051350Y0177350D02*
X0051350Y0077850D01*
X0051350Y0077600D01*
X0043500Y0072312D02*
X0063883Y0072312D01*
X0063347Y0071114D02*
X0043500Y0071114D01*
X0043500Y0069915D02*
X0062811Y0069915D01*
X0062275Y0068717D02*
X0043500Y0068717D01*
X0043500Y0067518D02*
X0061739Y0067518D01*
X0061203Y0066320D02*
X0043500Y0066320D01*
X0043500Y0065121D02*
X0060667Y0065121D01*
X0060132Y0063923D02*
X0043500Y0063923D01*
X0043500Y0062724D02*
X0059596Y0062724D01*
X0059060Y0061526D02*
X0043500Y0061526D01*
X0043500Y0060327D02*
X0058524Y0060327D01*
X0057988Y0059129D02*
X0043500Y0059129D01*
X0043500Y0057930D02*
X0057452Y0057930D01*
X0056916Y0056732D02*
X0043500Y0056732D01*
X0043500Y0055533D02*
X0056380Y0055533D01*
X0055844Y0054334D02*
X0043500Y0054334D01*
X0043500Y0053136D02*
X0055308Y0053136D01*
X0054772Y0051937D02*
X0043500Y0051937D01*
X0043500Y0050739D02*
X0054236Y0050739D01*
X0053700Y0049540D02*
X0043500Y0049540D01*
X0043500Y0048342D02*
X0053164Y0048342D01*
X0052628Y0047143D02*
X0043500Y0047143D01*
X0043500Y0045945D02*
X0052092Y0045945D01*
X0051556Y0044746D02*
X0043500Y0044746D01*
X0043500Y0043548D02*
X0051020Y0043548D01*
X0050484Y0042349D02*
X0043500Y0042349D01*
X0043500Y0041151D02*
X0049948Y0041151D01*
X0049412Y0039952D02*
X0043500Y0039952D01*
X0043500Y0038754D02*
X0048876Y0038754D01*
X0048340Y0037555D02*
X0043500Y0037555D01*
X0041100Y0031443D02*
X0041600Y0030943D01*
X0041600Y0016600D01*
X0039200Y0019578D02*
X0024000Y0019578D01*
X0024000Y0020776D02*
X0039200Y0020776D01*
X0039200Y0021975D02*
X0024000Y0021975D01*
X0024000Y0023173D02*
X0039200Y0023173D01*
X0056709Y0024372D02*
X0069856Y0024372D01*
X0068657Y0025570D02*
X0057180Y0025570D01*
X0057650Y0026769D02*
X0067459Y0026769D01*
X0067450Y0027967D02*
X0058121Y0027967D01*
X0058591Y0029166D02*
X0067450Y0029166D01*
X0067450Y0030364D02*
X0059062Y0030364D01*
X0059532Y0031563D02*
X0068590Y0031563D01*
X0069789Y0032761D02*
X0060003Y0032761D01*
X0073911Y0032761D02*
X0091300Y0032761D01*
X0091300Y0033960D02*
X0090599Y0033960D01*
X0081902Y0021975D02*
X0074415Y0021975D01*
X0075613Y0020776D02*
X0080742Y0020776D01*
X0080246Y0019578D02*
X0076050Y0019578D01*
X0076050Y0018379D02*
X0080100Y0018379D01*
X0080222Y0017181D02*
X0076050Y0017181D01*
X0075172Y0015982D02*
X0080718Y0015982D01*
X0081844Y0014784D02*
X0073973Y0014784D01*
X0104000Y0013585D02*
X0165350Y0013585D01*
X0165350Y0013944D02*
X0165350Y0011756D01*
X0166187Y0009734D01*
X0167734Y0008187D01*
X0169756Y0007350D01*
X0171944Y0007350D01*
X0173965Y0008187D01*
X0175513Y0009734D01*
X0176350Y0011756D01*
X0176350Y0013944D01*
X0175513Y0015965D01*
X0173965Y0017513D01*
X0171944Y0018350D01*
X0169756Y0018350D01*
X0167734Y0017513D01*
X0166187Y0015965D01*
X0165350Y0013944D01*
X0165698Y0014784D02*
X0122356Y0014784D01*
X0123482Y0015982D02*
X0166204Y0015982D01*
X0167402Y0017181D02*
X0123978Y0017181D01*
X0124100Y0018379D02*
X0196650Y0018379D01*
X0196650Y0017181D02*
X0193906Y0017181D01*
X0193628Y0017383D02*
X0192884Y0017762D01*
X0192091Y0018019D01*
X0191267Y0018150D01*
X0191250Y0018150D01*
X0191250Y0013250D01*
X0190450Y0013250D01*
X0190450Y0018150D01*
X0190433Y0018150D01*
X0189609Y0018019D01*
X0188816Y0017762D01*
X0188072Y0017383D01*
X0187397Y0016893D01*
X0186807Y0016303D01*
X0186317Y0015628D01*
X0185938Y0014884D01*
X0185680Y0014091D01*
X0185550Y0013267D01*
X0185550Y0013250D01*
X0190450Y0013250D01*
X0190450Y0012450D01*
X0185550Y0012450D01*
X0185550Y0012433D01*
X0185680Y0011609D01*
X0185938Y0010816D01*
X0186317Y0010072D01*
X0186807Y0009397D01*
X0187397Y0008807D01*
X0188072Y0008317D01*
X0188816Y0007938D01*
X0189609Y0007680D01*
X0190433Y0007550D01*
X0190450Y0007550D01*
X0190450Y0012450D01*
X0191250Y0012450D01*
X0191250Y0013250D01*
X0196150Y0013250D01*
X0196150Y0013267D01*
X0196019Y0014091D01*
X0195762Y0014884D01*
X0195383Y0015628D01*
X0194893Y0016303D01*
X0194303Y0016893D01*
X0193628Y0017383D01*
X0195126Y0015982D02*
X0196650Y0015982D01*
X0196650Y0014784D02*
X0195794Y0014784D01*
X0196100Y0013585D02*
X0196650Y0013585D01*
X0196650Y0012387D02*
X0196143Y0012387D01*
X0196150Y0012433D02*
X0196019Y0011609D01*
X0195762Y0010816D01*
X0195383Y0010072D01*
X0194893Y0009397D01*
X0194303Y0008807D01*
X0193628Y0008317D01*
X0192884Y0007938D01*
X0192091Y0007680D01*
X0191267Y0007550D01*
X0191250Y0007550D01*
X0191250Y0012450D01*
X0196150Y0012450D01*
X0196150Y0012433D01*
X0195883Y0011188D02*
X0196650Y0011188D01*
X0196650Y0009990D02*
X0195323Y0009990D01*
X0194280Y0008791D02*
X0196650Y0008791D01*
X0196650Y0007593D02*
X0191536Y0007593D01*
X0191250Y0007593D02*
X0190450Y0007593D01*
X0190164Y0007593D02*
X0172530Y0007593D01*
X0174569Y0008791D02*
X0187420Y0008791D01*
X0186377Y0009990D02*
X0175618Y0009990D01*
X0176115Y0011188D02*
X0185817Y0011188D01*
X0185557Y0012387D02*
X0176350Y0012387D01*
X0176350Y0013585D02*
X0185600Y0013585D01*
X0185906Y0014784D02*
X0176002Y0014784D01*
X0175496Y0015982D02*
X0186574Y0015982D01*
X0187794Y0017181D02*
X0174298Y0017181D01*
X0165350Y0012387D02*
X0104000Y0012387D01*
X0104000Y0011188D02*
X0165585Y0011188D01*
X0166082Y0009990D02*
X0163433Y0009990D01*
X0164631Y0008791D02*
X0167131Y0008791D01*
X0165250Y0007593D02*
X0169170Y0007593D01*
X0165250Y0006394D02*
X0196650Y0006394D01*
X0196650Y0005196D02*
X0165250Y0005196D01*
X0164720Y0003997D02*
X0196650Y0003997D01*
X0191250Y0008791D02*
X0190450Y0008791D01*
X0190450Y0009990D02*
X0191250Y0009990D01*
X0191250Y0011188D02*
X0190450Y0011188D01*
X0190450Y0012387D02*
X0191250Y0012387D01*
X0191250Y0013585D02*
X0190450Y0013585D01*
X0190450Y0014784D02*
X0191250Y0014784D01*
X0191250Y0015982D02*
X0190450Y0015982D01*
X0190450Y0017181D02*
X0191250Y0017181D01*
X0196650Y0019578D02*
X0123954Y0019578D01*
X0123458Y0020776D02*
X0196650Y0020776D01*
X0196650Y0021975D02*
X0122298Y0021975D01*
X0121593Y0024372D02*
X0196650Y0024372D01*
X0196650Y0025570D02*
X0123143Y0025570D01*
X0123808Y0026769D02*
X0196650Y0026769D01*
X0196650Y0027967D02*
X0124100Y0027967D01*
X0124100Y0029166D02*
X0196650Y0029166D01*
X0196650Y0030364D02*
X0123628Y0030364D01*
X0122710Y0031563D02*
X0196650Y0031563D01*
X0196650Y0032761D02*
X0109500Y0032761D01*
X0109500Y0031563D02*
X0111490Y0031563D01*
X0110572Y0030364D02*
X0109500Y0030364D01*
X0109678Y0029166D02*
X0110100Y0029166D01*
X0109500Y0033960D02*
X0113601Y0033960D01*
X0113625Y0033950D02*
X0120575Y0033950D01*
X0122192Y0034620D01*
X0123430Y0035858D01*
X0124100Y0037475D01*
X0124100Y0039225D01*
X0123430Y0040842D01*
X0122192Y0042080D01*
X0120575Y0042750D01*
X0113625Y0042750D01*
X0112008Y0042080D01*
X0110770Y0040842D01*
X0110100Y0039225D01*
X0110100Y0037475D01*
X0110770Y0035858D01*
X0112008Y0034620D01*
X0113625Y0033950D01*
X0111469Y0035158D02*
X0109500Y0035158D01*
X0109500Y0036357D02*
X0110563Y0036357D01*
X0110100Y0037555D02*
X0109500Y0037555D01*
X0109500Y0038754D02*
X0110100Y0038754D01*
X0110401Y0039952D02*
X0109500Y0039952D01*
X0109500Y0041151D02*
X0111078Y0041151D01*
X0109500Y0042349D02*
X0112658Y0042349D01*
X0113625Y0043950D02*
X0112008Y0044620D01*
X0110770Y0045858D01*
X0110100Y0047475D01*
X0110100Y0049225D01*
X0110770Y0050842D01*
X0112008Y0052080D01*
X0113625Y0052750D01*
X0120575Y0052750D01*
X0122192Y0052080D01*
X0123430Y0050842D01*
X0124100Y0049225D01*
X0124100Y0047475D01*
X0123430Y0045858D01*
X0122192Y0044620D01*
X0120575Y0043950D01*
X0113625Y0043950D01*
X0111881Y0044746D02*
X0109500Y0044746D01*
X0109500Y0043548D02*
X0196650Y0043548D01*
X0196650Y0044746D02*
X0122319Y0044746D01*
X0123466Y0045945D02*
X0196650Y0045945D01*
X0196650Y0047143D02*
X0123963Y0047143D01*
X0124100Y0048342D02*
X0196650Y0048342D01*
X0196650Y0049540D02*
X0123969Y0049540D01*
X0123473Y0050739D02*
X0196650Y0050739D01*
X0196650Y0051937D02*
X0122335Y0051937D01*
X0121312Y0054458D02*
X0121901Y0054758D01*
X0122436Y0055146D01*
X0122904Y0055614D01*
X0123292Y0056149D01*
X0123592Y0056738D01*
X0123797Y0057366D01*
X0123900Y0058019D01*
X0123900Y0058150D01*
X0117300Y0058150D01*
X0117300Y0058550D01*
X0116900Y0058550D01*
X0116900Y0062550D01*
X0114169Y0062550D01*
X0113516Y0062447D01*
X0112888Y0062242D01*
X0112299Y0061942D01*
X0111764Y0061554D01*
X0111296Y0061086D01*
X0110908Y0060551D01*
X0110608Y0059962D01*
X0110403Y0059334D01*
X0110300Y0058681D01*
X0110300Y0058550D01*
X0116900Y0058550D01*
X0116900Y0058150D01*
X0117300Y0058150D01*
X0117300Y0054150D01*
X0120031Y0054150D01*
X0120684Y0054253D01*
X0121312Y0054458D01*
X0120933Y0054334D02*
X0196650Y0054334D01*
X0196650Y0053136D02*
X0109500Y0053136D01*
X0109500Y0054334D02*
X0113267Y0054334D01*
X0113516Y0054253D02*
X0114169Y0054150D01*
X0116900Y0054150D01*
X0116900Y0058150D01*
X0110300Y0058150D01*
X0110300Y0058019D01*
X0110403Y0057366D01*
X0110608Y0056738D01*
X0110908Y0056149D01*
X0111296Y0055614D01*
X0111764Y0055146D01*
X0112299Y0054758D01*
X0112888Y0054458D01*
X0113516Y0054253D01*
X0111377Y0055533D02*
X0109500Y0055533D01*
X0109500Y0056732D02*
X0110611Y0056732D01*
X0110314Y0057930D02*
X0109500Y0057930D01*
X0109500Y0059129D02*
X0110371Y0059129D01*
X0110794Y0060327D02*
X0109500Y0060327D01*
X0109500Y0061526D02*
X0111736Y0061526D01*
X0109500Y0062724D02*
X0125864Y0062724D01*
X0126120Y0063342D02*
X0125450Y0061725D01*
X0125450Y0059975D01*
X0126120Y0058358D01*
X0127358Y0057120D01*
X0128975Y0056450D01*
X0130725Y0056450D01*
X0132342Y0057120D01*
X0133580Y0058358D01*
X0134250Y0059975D01*
X0134250Y0061725D01*
X0133580Y0063342D01*
X0132342Y0064580D01*
X0130725Y0065250D01*
X0128975Y0065250D01*
X0127358Y0064580D01*
X0126120Y0063342D01*
X0126700Y0063923D02*
X0109500Y0063923D01*
X0116900Y0061526D02*
X0117300Y0061526D01*
X0117300Y0062550D02*
X0117300Y0058550D01*
X0123900Y0058550D01*
X0123900Y0058681D01*
X0123797Y0059334D01*
X0123592Y0059962D01*
X0123292Y0060551D01*
X0122904Y0061086D01*
X0122436Y0061554D01*
X0121901Y0061942D01*
X0121312Y0062242D01*
X0120684Y0062447D01*
X0120031Y0062550D01*
X0117300Y0062550D01*
X0117300Y0060327D02*
X0116900Y0060327D01*
X0116900Y0059129D02*
X0117300Y0059129D01*
X0117300Y0057930D02*
X0116900Y0057930D01*
X0116900Y0056732D02*
X0117300Y0056732D01*
X0117300Y0055533D02*
X0116900Y0055533D01*
X0116900Y0054334D02*
X0117300Y0054334D01*
X0111865Y0051937D02*
X0109500Y0051937D01*
X0109500Y0050739D02*
X0110727Y0050739D01*
X0110231Y0049540D02*
X0109500Y0049540D01*
X0109500Y0048342D02*
X0110100Y0048342D01*
X0110237Y0047143D02*
X0109500Y0047143D01*
X0109500Y0045945D02*
X0110734Y0045945D01*
X0121542Y0042349D02*
X0196650Y0042349D01*
X0196650Y0041151D02*
X0123122Y0041151D01*
X0123799Y0039952D02*
X0196650Y0039952D01*
X0196650Y0038754D02*
X0124100Y0038754D01*
X0124100Y0037555D02*
X0196650Y0037555D01*
X0196650Y0036357D02*
X0123637Y0036357D01*
X0122731Y0035158D02*
X0196650Y0035158D01*
X0196650Y0033960D02*
X0120599Y0033960D01*
X0115671Y0023173D02*
X0196650Y0023173D01*
X0196650Y0055533D02*
X0122823Y0055533D01*
X0123589Y0056732D02*
X0128295Y0056732D01*
X0126547Y0057930D02*
X0123886Y0057930D01*
X0123829Y0059129D02*
X0125801Y0059129D01*
X0125450Y0060327D02*
X0123406Y0060327D01*
X0122464Y0061526D02*
X0125450Y0061526D01*
X0122694Y0065121D02*
X0128664Y0065121D01*
X0131036Y0065121D02*
X0188508Y0065121D01*
X0188430Y0065359D02*
X0188688Y0064566D01*
X0189067Y0063822D01*
X0189557Y0063147D01*
X0190147Y0062557D01*
X0190822Y0062067D01*
X0191566Y0061688D01*
X0192359Y0061430D01*
X0193183Y0061300D01*
X0193200Y0061300D01*
X0193200Y0066200D01*
X0188300Y0066200D01*
X0188300Y0066183D01*
X0188430Y0065359D01*
X0189016Y0063923D02*
X0152717Y0063923D01*
X0151590Y0065050D02*
X0150050Y0065050D01*
X0150050Y0061050D01*
X0154050Y0061050D01*
X0154050Y0062590D01*
X0151590Y0065050D01*
X0150050Y0063923D02*
X0149650Y0063923D01*
X0149650Y0065050D02*
X0148110Y0065050D01*
X0145650Y0062590D01*
X0145650Y0061050D01*
X0149650Y0061050D01*
X0149650Y0065050D01*
X0149650Y0062724D02*
X0150050Y0062724D01*
X0150050Y0061526D02*
X0149650Y0061526D01*
X0149650Y0061050D02*
X0150050Y0061050D01*
X0150050Y0060650D01*
X0154050Y0060650D01*
X0154050Y0059110D01*
X0151590Y0056650D01*
X0150050Y0056650D01*
X0150050Y0060650D01*
X0149650Y0060650D01*
X0149650Y0056650D01*
X0148110Y0056650D01*
X0145650Y0059110D01*
X0145650Y0060650D01*
X0149650Y0060650D01*
X0149650Y0061050D01*
X0149650Y0060327D02*
X0150050Y0060327D01*
X0150050Y0059129D02*
X0149650Y0059129D01*
X0149650Y0057930D02*
X0150050Y0057930D01*
X0150050Y0056732D02*
X0149650Y0056732D01*
X0148029Y0056732D02*
X0131405Y0056732D01*
X0133153Y0057930D02*
X0146830Y0057930D01*
X0145650Y0059129D02*
X0133899Y0059129D01*
X0134250Y0060327D02*
X0145650Y0060327D01*
X0145650Y0061526D02*
X0134250Y0061526D01*
X0133836Y0062724D02*
X0145784Y0062724D01*
X0146983Y0063923D02*
X0133000Y0063923D01*
X0124100Y0067518D02*
X0188379Y0067518D01*
X0188730Y0068717D02*
X0124100Y0068717D01*
X0123814Y0069915D02*
X0189457Y0069915D01*
X0190796Y0071114D02*
X0123159Y0071114D01*
X0121632Y0072312D02*
X0190110Y0072312D01*
X0193200Y0066320D02*
X0123621Y0066320D01*
X0110749Y0075908D02*
X0109500Y0075908D01*
X0109500Y0077106D02*
X0110253Y0077106D01*
X0110100Y0078305D02*
X0109500Y0078305D01*
X0109500Y0079503D02*
X0110215Y0079503D01*
X0110712Y0080702D02*
X0109500Y0080702D01*
X0109500Y0081900D02*
X0111828Y0081900D01*
X0112786Y0084297D02*
X0109500Y0084297D01*
X0109500Y0083099D02*
X0189323Y0083099D01*
X0193200Y0065121D02*
X0194000Y0065121D01*
X0194000Y0063923D02*
X0193200Y0063923D01*
X0193200Y0062724D02*
X0194000Y0062724D01*
X0194000Y0061526D02*
X0193200Y0061526D01*
X0192066Y0061526D02*
X0154050Y0061526D01*
X0154050Y0060327D02*
X0196650Y0060327D01*
X0196650Y0059129D02*
X0154050Y0059129D01*
X0152870Y0057930D02*
X0196650Y0057930D01*
X0196650Y0056732D02*
X0151671Y0056732D01*
X0153916Y0062724D02*
X0189981Y0062724D01*
X0195134Y0061526D02*
X0196650Y0061526D01*
X0136800Y0134635D02*
X0136400Y0134635D01*
X0136400Y0135833D02*
X0136800Y0135833D01*
X0136800Y0137032D02*
X0136400Y0137032D01*
X0136400Y0138230D02*
X0136800Y0138230D01*
X0136800Y0139429D02*
X0136400Y0139429D01*
X0136400Y0140627D02*
X0136800Y0140627D01*
X0136800Y0141826D02*
X0136400Y0141826D01*
X0133427Y0135833D02*
X0123063Y0135833D01*
X0121660Y0134635D02*
X0134626Y0134635D01*
X0117300Y0134635D02*
X0116900Y0134635D01*
X0116900Y0135833D02*
X0117300Y0135833D01*
X0117300Y0137032D02*
X0116900Y0137032D01*
X0116900Y0139429D02*
X0117300Y0139429D01*
X0117300Y0140627D02*
X0116900Y0140627D01*
X0116900Y0141826D02*
X0117300Y0141826D01*
X0099200Y0121451D02*
X0092821Y0121451D01*
X0093674Y0120253D02*
X0099200Y0120253D01*
X0099200Y0119054D02*
X0094100Y0119054D01*
X0094100Y0117856D02*
X0099200Y0117856D01*
X0099200Y0116657D02*
X0093761Y0116657D01*
X0093031Y0115459D02*
X0099200Y0115459D01*
X0099200Y0103473D02*
X0087764Y0103473D01*
X0091722Y0102275D02*
X0099200Y0102275D01*
X0098762Y0101076D02*
X0093196Y0101076D01*
X0093830Y0099878D02*
X0098150Y0099878D01*
X0098019Y0098679D02*
X0094100Y0098679D01*
X0094100Y0097481D02*
X0098291Y0097481D01*
X0099103Y0096282D02*
X0093606Y0096282D01*
X0092656Y0095084D02*
X0099200Y0095084D01*
X0109500Y0092687D02*
X0113472Y0092687D01*
X0111416Y0091488D02*
X0109500Y0091488D01*
X0109500Y0090290D02*
X0110541Y0090290D01*
X0110100Y0089091D02*
X0109500Y0089091D01*
X0109500Y0087893D02*
X0110100Y0087893D01*
X0110423Y0086694D02*
X0109500Y0086694D01*
X0109500Y0085496D02*
X0111132Y0085496D01*
X0099200Y0081900D02*
X0091959Y0081900D01*
X0093183Y0080702D02*
X0099200Y0080702D01*
X0082394Y0074709D02*
X0072844Y0074709D01*
X0073314Y0075908D02*
X0081083Y0075908D01*
X0080488Y0077106D02*
X0073785Y0077106D01*
X0080843Y0095084D02*
X0081544Y0095084D01*
X0081993Y0134635D02*
X0053750Y0134635D01*
X0053750Y0135833D02*
X0080794Y0135833D01*
X0080283Y0137032D02*
X0053750Y0137032D01*
X0053750Y0138230D02*
X0080100Y0138230D01*
X0080184Y0139429D02*
X0053750Y0139429D01*
X0053750Y0140627D02*
X0080681Y0140627D01*
X0081206Y0145421D02*
X0053750Y0145421D01*
X0063805Y0155009D02*
X0080751Y0155009D01*
X0079552Y0156208D02*
X0063020Y0156208D01*
X0061618Y0157406D02*
X0078650Y0157406D01*
X0059250Y0171789D02*
X0058450Y0171789D01*
X0055337Y0176583D02*
X0054908Y0176583D01*
X0033288Y0164598D02*
X0025951Y0164598D01*
X0026010Y0164454D02*
X0024882Y0167177D01*
X0022798Y0169262D01*
X0020074Y0170390D01*
X0017126Y0170390D01*
X0014402Y0169262D01*
X0012318Y0167177D01*
X0011190Y0164454D01*
X0011190Y0161506D01*
X0012318Y0158782D01*
X0014402Y0156698D01*
X0017126Y0155570D01*
X0020074Y0155570D01*
X0022798Y0156698D01*
X0024882Y0158782D01*
X0026010Y0161506D01*
X0026010Y0164454D01*
X0026010Y0163399D02*
X0033700Y0163399D01*
X0033700Y0162201D02*
X0026010Y0162201D01*
X0025801Y0161002D02*
X0033700Y0161002D01*
X0033700Y0159803D02*
X0025305Y0159803D01*
X0024705Y0158605D02*
X0033700Y0158605D01*
X0033700Y0157406D02*
X0023506Y0157406D01*
X0021615Y0156208D02*
X0033700Y0156208D01*
X0033700Y0155009D02*
X0003400Y0155009D01*
X0003400Y0153811D02*
X0033700Y0153811D01*
X0032090Y0165796D02*
X0025454Y0165796D01*
X0024958Y0166995D02*
X0030891Y0166995D01*
X0029693Y0168193D02*
X0023866Y0168193D01*
X0022485Y0169392D02*
X0028494Y0169392D01*
X0027676Y0170590D02*
X0003400Y0170590D01*
X0003400Y0169392D02*
X0014715Y0169392D01*
X0013334Y0168193D02*
X0003400Y0168193D01*
X0003400Y0166995D02*
X0012242Y0166995D01*
X0011746Y0165796D02*
X0003400Y0165796D01*
X0003400Y0164598D02*
X0011249Y0164598D01*
X0011190Y0163399D02*
X0003400Y0163399D01*
X0003400Y0162201D02*
X0011190Y0162201D01*
X0011398Y0161002D02*
X0003400Y0161002D01*
X0003400Y0159803D02*
X0011895Y0159803D01*
X0012495Y0158605D02*
X0003400Y0158605D01*
X0003400Y0157406D02*
X0013694Y0157406D01*
X0015585Y0156208D02*
X0003400Y0156208D01*
X0003400Y0152612D02*
X0004390Y0152612D01*
X0003400Y0171789D02*
X0027580Y0171789D01*
X0027580Y0172987D02*
X0003400Y0172987D01*
X0129581Y0169392D02*
X0134200Y0169392D01*
X0134200Y0170590D02*
X0130050Y0170590D01*
X0139000Y0172987D02*
X0139773Y0172987D01*
X0136600Y0180100D02*
X0142600Y0186100D01*
X0158798Y0182575D02*
X0164402Y0182575D01*
X0163204Y0183774D02*
X0159996Y0183774D01*
X0161000Y0184972D02*
X0162200Y0184972D01*
X0162200Y0186171D02*
X0161000Y0186171D01*
X0161000Y0187369D02*
X0162200Y0187369D01*
X0162345Y0188568D02*
X0160855Y0188568D01*
X0159656Y0189766D02*
X0163544Y0189766D01*
X0164742Y0190965D02*
X0158458Y0190965D01*
D19*
X0107100Y0168850D03*
X0101600Y0146600D03*
X0101600Y0098850D03*
X0051350Y0077850D03*
X0036100Y0093350D03*
X0024981Y0085469D03*
X0035100Y0057350D03*
X0018100Y0047100D03*
X0024981Y0037100D03*
X0013100Y0028350D03*
X0021600Y0016600D03*
X0041600Y0016600D03*
X0093850Y0012850D03*
X0101600Y0006600D03*
X0101600Y0028600D03*
X0021600Y0148600D03*
X0051350Y0177350D03*
X0026850Y0180350D03*
M02*
