G75*
%MOIN*%
%OFA0B0*%
%FSLAX25Y25*%
%IPPOS*%
%LPD*%
%AMOC8*
5,1,8,0,0,1.08239X$1,22.5*
%
%ADD10C,0.00000*%
%ADD11OC8,0.05600*%
%ADD12C,0.05600*%
%ADD13C,0.05550*%
%ADD14C,0.11620*%
%ADD15C,0.07800*%
%ADD16C,0.05600*%
%ADD17C,0.06337*%
D10*
X0001600Y0001600D02*
X0001600Y0198450D01*
X0198450Y0198450D01*
X0198450Y0001600D01*
X0001600Y0001600D01*
D11*
X0007350Y0017350D03*
X0035100Y0033100D03*
X0045100Y0033100D03*
X0071850Y0028600D03*
X0071850Y0018600D03*
X0120850Y0006350D03*
X0160850Y0006350D03*
X0149850Y0060850D03*
X0136600Y0138600D03*
X0136600Y0148600D03*
X0125850Y0171600D03*
X0142600Y0176100D03*
X0142600Y0186100D03*
X0156600Y0186600D03*
X0166600Y0186600D03*
X0188600Y0190850D03*
X0188600Y0150850D03*
X0104850Y0182100D03*
X0099850Y0174600D03*
X0094850Y0182100D03*
X0082850Y0168850D03*
X0082850Y0158850D03*
X0046600Y0148600D03*
X0006600Y0148600D03*
X0007350Y0057350D03*
D12*
X0129850Y0060850D03*
X0125850Y0191600D03*
D13*
X0074724Y0189100D03*
X0066850Y0189100D03*
X0058976Y0189100D03*
X0038679Y0183649D03*
X0033954Y0180500D03*
X0038679Y0177350D03*
X0033954Y0174200D03*
X0038679Y0171051D03*
D14*
X0018600Y0162980D03*
X0018600Y0191720D03*
D15*
X0058850Y0172600D03*
X0058850Y0152600D03*
X0006600Y0136600D03*
X0006600Y0126600D03*
X0006600Y0116600D03*
X0006600Y0106600D03*
X0006600Y0096600D03*
X0006600Y0086600D03*
X0006600Y0076600D03*
X0006600Y0066600D03*
X0007350Y0007100D03*
X0017350Y0007100D03*
X0027350Y0007100D03*
X0037350Y0007100D03*
X0047350Y0007100D03*
X0073600Y0048100D03*
X0073600Y0058100D03*
X0073600Y0068100D03*
X0170850Y0012850D03*
X0190850Y0012850D03*
X0193600Y0066600D03*
X0193600Y0076600D03*
X0193600Y0086600D03*
X0193600Y0096600D03*
X0193600Y0106600D03*
X0193600Y0116600D03*
X0193600Y0126600D03*
X0193600Y0136600D03*
D16*
X0119700Y0138350D02*
X0114500Y0138350D01*
X0114500Y0128350D02*
X0119700Y0128350D01*
X0119700Y0118350D02*
X0114500Y0118350D01*
X0114500Y0108350D02*
X0119700Y0108350D01*
X0119700Y0098350D02*
X0114500Y0098350D01*
X0114500Y0088350D02*
X0119700Y0088350D01*
X0119700Y0078350D02*
X0114500Y0078350D01*
X0114500Y0068350D02*
X0119700Y0068350D01*
X0119700Y0058350D02*
X0114500Y0058350D01*
X0114500Y0048350D02*
X0119700Y0048350D01*
X0119700Y0038350D02*
X0114500Y0038350D01*
X0114500Y0028350D02*
X0119700Y0028350D01*
X0119700Y0018350D02*
X0114500Y0018350D01*
X0089700Y0018350D02*
X0084500Y0018350D01*
X0084500Y0028350D02*
X0089700Y0028350D01*
X0089700Y0038350D02*
X0084500Y0038350D01*
X0084500Y0048350D02*
X0089700Y0048350D01*
X0089700Y0058350D02*
X0084500Y0058350D01*
X0084500Y0068350D02*
X0089700Y0068350D01*
X0089700Y0078350D02*
X0084500Y0078350D01*
X0084500Y0088350D02*
X0089700Y0088350D01*
X0089700Y0098350D02*
X0084500Y0098350D01*
X0084500Y0108350D02*
X0089700Y0108350D01*
X0089700Y0118350D02*
X0084500Y0118350D01*
X0084500Y0128350D02*
X0089700Y0128350D01*
X0089700Y0138350D02*
X0084500Y0138350D01*
X0084500Y0148350D02*
X0089700Y0148350D01*
X0114500Y0148350D02*
X0119700Y0148350D01*
D17*
X0082598Y0189100D03*
X0051102Y0189100D03*
M02*
