%
M48
M72
T01C0.02362
T02C0.03150
T03C0.03200
T04C0.03937
T05C0.04000
T06C0.07480
%
T01
X21600Y16600
X13100Y28350
X24981Y37100
X18100Y47100
X35100Y57350
X51350Y77850
X36100Y93350
X24981Y85469
X21600Y148600
X51350Y177350
X26850Y180350
X101600Y146600
X107100Y168850
X101600Y98850
X101600Y28600
X93850Y12850
X101600Y6600
X41600Y16600
T02
X38679Y171051
X33954Y174200
X38679Y177350
X33954Y180500
X38679Y183649
X58976Y189100
X66850Y189100
X74724Y189100
T03
X6600Y148600
X46600Y148600
X82850Y158850
X82850Y168850
X94850Y182100
X99850Y174600
X104850Y182100
X125850Y191600
X142600Y186100
X142600Y176100
X156600Y186600
X166600Y186600
X188600Y190850
X188600Y150850
X136600Y148600
X136600Y138600
X117100Y138350
X117100Y128350
X117100Y118350
X117100Y108350
X117100Y98350
X117100Y88350
X117100Y78350
X117100Y68350
X117100Y58350
X117100Y48350
X117100Y38350
X117100Y28350
X117100Y18350
X120850Y6350
X87100Y18350
X87100Y28350
X87100Y38350
X87100Y48350
X87100Y58350
X87100Y68350
X87100Y78350
X87100Y88350
X87100Y98350
X87100Y108350
X87100Y118350
X87100Y128350
X87100Y138350
X87100Y148350
X117100Y148350
X125850Y171600
X129850Y60850
X149850Y60850
X160850Y6350
X71850Y18600
X71850Y28600
X45100Y33100
X35100Y33100
X7350Y17350
X7350Y57350
T04
X51102Y189100
X82598Y189100
T05
X58850Y172600
X58850Y152600
X6600Y136600
X6600Y126600
X6600Y116600
X6600Y106600
X6600Y96600
X6600Y86600
X6600Y76600
X6600Y66600
X7350Y7100
X17350Y7100
X27350Y7100
X37350Y7100
X47350Y7100
X73600Y48100
X73600Y58100
X73600Y68100
X170850Y12850
X190850Y12850
X193600Y66600
X193600Y76600
X193600Y86600
X193600Y96600
X193600Y106600
X193600Y116600
X193600Y126600
X193600Y136600
T06
X18600Y191720
X18600Y162980
M30
