G75*
%MOIN*%
%OFA0B0*%
%FSLAX25Y25*%
%IPPOS*%
%LPD*%
%AMOC8*
5,1,8,0,0,1.08239X$1,22.5*
%
%ADD10C,0.00000*%
%ADD11OC8,0.05200*%
%ADD12C,0.05200*%
%ADD13C,0.05150*%
%ADD14C,0.11220*%
%ADD15C,0.07400*%
%ADD16C,0.05200*%
%ADD17C,0.05937*%
%ADD18C,0.01200*%
%ADD19C,0.03562*%
D10*
X0001600Y0001600D02*
X0001600Y0198450D01*
X0198450Y0198450D01*
X0198450Y0001600D01*
X0001600Y0001600D01*
D11*
X0007350Y0017350D03*
X0035100Y0033100D03*
X0045100Y0033100D03*
X0071850Y0028600D03*
X0071850Y0018600D03*
X0120850Y0006350D03*
X0160850Y0006350D03*
X0149850Y0060850D03*
X0136600Y0138600D03*
X0136600Y0148600D03*
X0125850Y0171600D03*
X0142600Y0176100D03*
X0142600Y0186100D03*
X0156600Y0186600D03*
X0166600Y0186600D03*
X0188600Y0190850D03*
X0188600Y0150850D03*
X0104850Y0182100D03*
X0099850Y0174600D03*
X0094850Y0182100D03*
X0082850Y0168850D03*
X0082850Y0158850D03*
X0046600Y0148600D03*
X0006600Y0148600D03*
X0007350Y0057350D03*
D12*
X0129850Y0060850D03*
X0125850Y0191600D03*
D13*
X0074724Y0189100D03*
X0066850Y0189100D03*
X0058976Y0189100D03*
X0038679Y0183649D03*
X0033954Y0180500D03*
X0038679Y0177350D03*
X0033954Y0174200D03*
X0038679Y0171051D03*
D14*
X0018600Y0162980D03*
X0018600Y0191720D03*
D15*
X0058850Y0172600D03*
X0058850Y0152600D03*
X0006600Y0136600D03*
X0006600Y0126600D03*
X0006600Y0116600D03*
X0006600Y0106600D03*
X0006600Y0096600D03*
X0006600Y0086600D03*
X0006600Y0076600D03*
X0006600Y0066600D03*
X0007350Y0007100D03*
X0017350Y0007100D03*
X0027350Y0007100D03*
X0037350Y0007100D03*
X0047350Y0007100D03*
X0073600Y0048100D03*
X0073600Y0058100D03*
X0073600Y0068100D03*
X0170850Y0012850D03*
X0190850Y0012850D03*
X0193600Y0066600D03*
X0193600Y0076600D03*
X0193600Y0086600D03*
X0193600Y0096600D03*
X0193600Y0106600D03*
X0193600Y0116600D03*
X0193600Y0126600D03*
X0193600Y0136600D03*
D16*
X0119700Y0138350D02*
X0114500Y0138350D01*
X0114500Y0128350D02*
X0119700Y0128350D01*
X0119700Y0118350D02*
X0114500Y0118350D01*
X0114500Y0108350D02*
X0119700Y0108350D01*
X0119700Y0098350D02*
X0114500Y0098350D01*
X0114500Y0088350D02*
X0119700Y0088350D01*
X0119700Y0078350D02*
X0114500Y0078350D01*
X0114500Y0068350D02*
X0119700Y0068350D01*
X0119700Y0058350D02*
X0114500Y0058350D01*
X0114500Y0048350D02*
X0119700Y0048350D01*
X0119700Y0038350D02*
X0114500Y0038350D01*
X0114500Y0028350D02*
X0119700Y0028350D01*
X0119700Y0018350D02*
X0114500Y0018350D01*
X0089700Y0018350D02*
X0084500Y0018350D01*
X0084500Y0028350D02*
X0089700Y0028350D01*
X0089700Y0038350D02*
X0084500Y0038350D01*
X0084500Y0048350D02*
X0089700Y0048350D01*
X0089700Y0058350D02*
X0084500Y0058350D01*
X0084500Y0068350D02*
X0089700Y0068350D01*
X0089700Y0078350D02*
X0084500Y0078350D01*
X0084500Y0088350D02*
X0089700Y0088350D01*
X0089700Y0098350D02*
X0084500Y0098350D01*
X0084500Y0108350D02*
X0089700Y0108350D01*
X0089700Y0118350D02*
X0084500Y0118350D01*
X0084500Y0128350D02*
X0089700Y0128350D01*
X0089700Y0138350D02*
X0084500Y0138350D01*
X0084500Y0148350D02*
X0089700Y0148350D01*
X0114500Y0148350D02*
X0119700Y0148350D01*
D17*
X0082598Y0189100D03*
X0051102Y0189100D03*
D18*
X0051350Y0177350D02*
X0038679Y0177350D01*
X0033954Y0180500D02*
X0026850Y0180500D01*
X0026850Y0180350D01*
X0038679Y0183649D02*
X0066850Y0183649D01*
X0066850Y0189100D01*
X0074724Y0189100D02*
X0082850Y0180974D01*
X0082850Y0168850D01*
X0099850Y0168850D01*
X0107100Y0168850D01*
X0099850Y0168850D02*
X0099850Y0174600D01*
X0094850Y0182100D02*
X0094850Y0189850D01*
X0096600Y0191600D01*
X0125850Y0191600D01*
X0137100Y0191600D01*
X0142600Y0186100D01*
X0156100Y0186100D01*
X0156600Y0186600D01*
X0166600Y0186600D02*
X0188600Y0190850D01*
X0136600Y0148600D02*
X0117100Y0148350D01*
X0117100Y0146600D01*
X0101600Y0146600D01*
X0093607Y0146600D01*
X0091357Y0144350D01*
X0010850Y0144350D01*
X0006600Y0148600D01*
X0006600Y0138350D02*
X0006600Y0136600D01*
X0006600Y0138350D02*
X0087100Y0138350D01*
X0087100Y0128350D02*
X0006600Y0128350D01*
X0006600Y0126600D01*
X0006600Y0116600D02*
X0024850Y0098350D01*
X0087100Y0098350D01*
X0087100Y0088350D02*
X0025100Y0090100D01*
X0006600Y0106600D01*
X0006600Y0086600D02*
X0006600Y0086469D01*
X0024981Y0085469D01*
X0036100Y0093350D02*
X0117100Y0093350D01*
X0117100Y0088350D01*
X0117100Y0078350D02*
X0113100Y0074350D01*
X0082843Y0074350D01*
X0079343Y0077850D01*
X0051350Y0077850D01*
X0035100Y0057350D02*
X0007350Y0057350D01*
X0018100Y0047100D02*
X0018600Y0047100D01*
X0018100Y0047100D02*
X0067388Y0047100D01*
X0071488Y0043000D01*
X0075713Y0043000D01*
X0081063Y0048350D01*
X0087100Y0048350D01*
X0087100Y0058350D02*
X0083850Y0058350D01*
X0073600Y0048100D01*
X0087100Y0038350D02*
X0087100Y0033100D01*
X0045100Y0033100D01*
X0040757Y0033100D01*
X0036757Y0037100D01*
X0024981Y0037100D01*
X0013100Y0028350D02*
X0071850Y0028600D01*
X0071850Y0028350D01*
X0087100Y0028350D01*
X0101600Y0028350D01*
X0101600Y0028600D01*
X0117100Y0028350D02*
X0135350Y0028350D01*
X0193600Y0086600D01*
X0193600Y0076600D02*
X0135350Y0018350D01*
X0117100Y0018350D01*
X0120850Y0006350D02*
X0101600Y0006350D01*
X0101600Y0006600D01*
X0093850Y0012850D02*
X0161600Y0012850D01*
X0160850Y0012850D02*
X0160850Y0006350D01*
X0160850Y0012850D02*
X0170850Y0012850D01*
X0135350Y0038350D02*
X0193600Y0096600D01*
X0193600Y0106600D02*
X0151850Y0064850D01*
X0148193Y0064850D01*
X0131693Y0048350D01*
X0117100Y0048350D01*
X0117100Y0038350D02*
X0135350Y0038350D01*
X0129850Y0060850D02*
X0122350Y0068350D01*
X0117100Y0068350D01*
X0117100Y0098350D02*
X0117100Y0098850D01*
X0101600Y0098850D01*
X0117100Y0108350D02*
X0185350Y0108350D01*
X0193600Y0116600D01*
X0185350Y0118350D02*
X0193600Y0126600D01*
X0185350Y0128350D02*
X0193600Y0136600D01*
X0185350Y0128350D02*
X0117100Y0128350D01*
X0117100Y0118350D02*
X0185350Y0118350D01*
X0136600Y0148350D02*
X0136600Y0148600D01*
X0087100Y0148350D02*
X0058850Y0148350D01*
X0058850Y0152600D01*
X0046600Y0152600D01*
X0046600Y0148600D01*
X0021600Y0148600D01*
X0045350Y0177350D02*
X0051350Y0177350D01*
X0073600Y0068350D02*
X0073600Y0068100D01*
X0073600Y0068350D02*
X0087100Y0068350D01*
X0087100Y0018350D02*
X0077257Y0018350D01*
X0073507Y0014600D01*
X0070193Y0014600D01*
X0068193Y0016600D01*
X0041600Y0016600D01*
X0021600Y0016600D02*
X0016850Y0016600D01*
X0007350Y0007100D01*
D19*
X0021600Y0016600D03*
X0013100Y0028350D03*
X0024981Y0037100D03*
X0018100Y0047100D03*
X0035100Y0057350D03*
X0051350Y0077850D03*
X0036100Y0093350D03*
X0024981Y0085469D03*
X0021600Y0148600D03*
X0051350Y0177350D03*
X0026850Y0180350D03*
X0101600Y0146600D03*
X0107100Y0168850D03*
X0101600Y0098850D03*
X0101600Y0028600D03*
X0093850Y0012850D03*
X0101600Y0006600D03*
X0041600Y0016600D03*
M02*
